<?xml version="1.0" encoding="iso-8859-1"?>
<!-- Generator: Adobe Illustrator 27.0.0, SVG Export Plug-In . SVG Version: 6.00 Build 0)  -->
<svg version="1.1" id="Layer_1" xmlns="http://www.w3.org/2000/svg" xmlns:xlink="http://www.w3.org/1999/xlink" x="0px" y="0px"
	 viewBox="0 0 500 500" style="enable-background:new 0 0 500 500;" xml:space="preserve">
<g id="watermark_1_">
	<g>
		<g id="watermark" style="opacity:0.61;">
			<g>
				<g>
					<g>
						<g>
							<polygon style="fill:#FFFFFF;" points="213.765,461.172 208.204,474.017 205.268,474.017 199.726,461.172 202.938,461.172 
								206.846,470.347 210.81,461.172 							"/>
						</g>
						<g>
							<path style="fill:#FFFFFF;" d="M223.507,469.741h-7.469c0.275,1.23,1.321,1.982,2.826,1.982c1.046,0,1.798-0.312,2.477-0.954
								l1.523,1.651c-0.917,1.046-2.294,1.597-4.074,1.597c-3.413,0-5.634-2.147-5.634-5.083c0-2.954,2.257-5.083,5.267-5.083
								c2.899,0,5.138,1.945,5.138,5.12C223.562,469.191,223.526,469.503,223.507,469.741 M216.002,468.071h4.863
								c-0.202-1.248-1.138-2.055-2.422-2.055C217.139,466.016,216.204,466.805,216.002,468.071"/>
						</g>
						<g>
							<path style="fill:#FFFFFF;" d="M224.735,468.934c0-2.973,2.294-5.083,5.505-5.083c2.074,0,3.707,0.899,4.423,2.514
								l-2.22,1.193c-0.532-0.936-1.321-1.358-2.221-1.358c-1.45,0-2.587,1.009-2.587,2.734c0,1.725,1.138,2.734,2.587,2.734
								c0.899,0,1.688-0.404,2.221-1.358l2.22,1.211c-0.716,1.578-2.349,2.495-4.423,2.495
								C227.029,474.017,224.735,471.907,224.735,468.934"/>
						</g>
						<g>
							<path style="fill:#FFFFFF;" d="M242.828,473.393c-0.587,0.422-1.45,0.624-2.331,0.624c-2.33,0-3.688-1.193-3.688-3.542
								v-4.055h-1.523v-2.202h1.523v-2.404h2.863v2.404h2.459v2.202h-2.459v4.019c0,0.844,0.458,1.303,1.229,1.303
								c0.422,0,0.844-0.128,1.156-0.367L242.828,473.393z"/>
						</g>
					</g>
					<g>
						<path style="fill:#FFFFFF;" d="M262.474,463.997v2.643c-0.238-0.018-0.422-0.037-0.642-0.037
							c-1.578,0-2.624,0.862-2.624,2.753v4.661h-2.863v-9.873h2.734v1.303C259.776,464.493,260.951,463.997,262.474,463.997"/>
					</g>
					<g>
						<path style="fill:#FFFFFF;" d="M263.299,472.53l1.009-2.239c1.083,0.789,2.697,1.339,4.239,1.339
							c1.762,0,2.477-0.587,2.477-1.376c0-2.404-7.469-0.752-7.469-5.524c0-2.184,1.762-4,5.413-4c1.615,0,3.267,0.385,4.459,1.138
							l-0.918,2.257c-1.193-0.679-2.422-1.009-3.56-1.009c-1.761,0-2.44,0.66-2.44,1.468c0,2.367,7.468,0.734,7.468,5.45
							c0,2.147-1.78,3.982-5.45,3.982C266.492,474.017,264.437,473.411,263.299,472.53"/>
					</g>
					<g>
						<path style="fill:#FFFFFF;" d="M285.428,469.741h-7.469c0.275,1.23,1.321,1.982,2.826,1.982c1.046,0,1.798-0.312,2.477-0.954
							l1.523,1.651c-0.918,1.046-2.294,1.597-4.074,1.597c-3.413,0-5.634-2.147-5.634-5.083c0-2.954,2.257-5.083,5.267-5.083
							c2.9,0,5.138,1.945,5.138,5.12C285.484,469.191,285.447,469.503,285.428,469.741 M277.923,468.071h4.863
							c-0.202-1.248-1.138-2.055-2.422-2.055C279.061,466.016,278.125,466.805,277.923,468.071"/>
					</g>
					<g>
						<path style="fill:#FFFFFF;" d="M297.007,469.741h-7.469c0.275,1.23,1.321,1.982,2.826,1.982c1.046,0,1.798-0.312,2.477-0.954
							l1.523,1.651c-0.918,1.046-2.294,1.597-4.074,1.597c-3.413,0-5.634-2.147-5.634-5.083c0-2.954,2.257-5.083,5.267-5.083
							c2.899,0,5.138,1.945,5.138,5.12C297.062,469.191,297.025,469.503,297.007,469.741 M289.501,468.071h4.863
							c-0.202-1.248-1.138-2.055-2.422-2.055C290.639,466.016,289.703,466.805,289.501,468.071"/>
					</g>
					<g>
						<polygon style="fill:#FFFFFF;" points="303.208,470.145 301.831,471.503 301.831,474.017 298.969,474.017 298.969,460.401 
							301.831,460.401 301.831,468.108 306.016,464.144 309.429,464.144 305.318,468.328 309.796,474.017 306.327,474.017 						"/>
					</g>
					<g>
						<path style="fill:#FFFFFF;" d="M256.601,475.359L256.601,475.359l-2.86-2.86c-0.435,0.508-0.953,0.943-1.534,1.284
							c-0.092,0.069-0.186,0.136-0.283,0.199l3.027,3.027c0.456,0.456,1.195,0.456,1.65,0
							C257.057,476.554,257.057,475.815,256.601,475.359"/>
					</g>
					<g>
						<path style="fill:#FFFFFF;" d="M249.984,463.244c0.221-0.173,0.495-0.281,0.797-0.281c0.042,0,0.083,0.002,0.124,0.006
							c-0.214-0.156-0.478-0.249-0.764-0.249c-0.395,0-0.744,0.18-0.981,0.458c-0.051,0-0.1,0.006-0.151,0.008
							c0.039-0.077,0.064-0.162,0.064-0.255c0-0.234-0.143-0.434-0.346-0.519c0.087,0.126,0.138,0.279,0.138,0.445
							c0,0.122-0.031,0.237-0.081,0.341c-2.811,0.201-5.03,2.539-5.03,5.4c0,2.993,2.426,5.42,5.42,5.42
							c2.993,0,5.42-2.426,5.42-5.42C254.595,465.879,252.593,463.635,249.984,463.244 M247.983,464.656
							c0.435,0,0.844,0.112,1.199,0.309c0.374-0.245,0.82-0.387,1.299-0.387c0.711,0,1.348,0.312,1.784,0.806
							c-0.435-0.379-1.004-0.61-1.627-0.61c-0.449,0-0.87,0.12-1.234,0.329c-0.079,0.046-0.156,0.096-0.229,0.15
							c-0.065-0.048-0.133-0.093-0.204-0.134c-0.369-0.219-0.8-0.344-1.26-0.344c-0.3,0-0.588,0.054-0.854,0.152
							C247.196,464.754,247.578,464.656,247.983,464.656 M251.772,469.098c0.115,0.305,0.181,0.634,0.181,0.979
							c0,1.534-1.244,2.777-2.778,2.777c-1.534,0-2.777-1.243-2.777-2.777c0-0.345,0.066-0.674,0.181-0.979
							c-0.62-0.382-1.035-1.064-1.035-1.846c0-1.197,0.971-2.168,2.168-2.168c0.565,0,1.078,0.218,1.463,0.572
							c0.386-0.354,0.899-0.572,1.464-0.572c1.197,0,2.168,0.971,2.168,2.168C252.807,468.034,252.392,468.716,251.772,469.098"/>
					</g>
					<g>
						<path style="fill:#FFFFFF;" d="M251.666,467.061c0,0.497-0.404,0.901-0.901,0.901c-0.497,0-0.901-0.404-0.901-0.901
							s0.404-0.901,0.901-0.901c0.101,0,0.197,0.017,0.287,0.047c-0.03,0.062-0.045,0.132-0.045,0.204
							c0,0.273,0.221,0.494,0.494,0.494c0.05,0,0.099-0.008,0.146-0.022C251.66,466.941,251.666,467,251.666,467.061"/>
					</g>
					<g>
						<path style="fill:#FFFFFF;" d="M248.255,467.061c0,0.376-0.305,0.681-0.681,0.681c-0.376,0-0.681-0.305-0.681-0.681
							s0.305-0.681,0.681-0.681c0.076,0,0.149,0.013,0.217,0.035c-0.023,0.047-0.034,0.1-0.034,0.155
							c0,0.206,0.167,0.374,0.374,0.374c0.038,0,0.075-0.006,0.11-0.017C248.25,466.97,248.255,467.015,248.255,467.061"/>
					</g>
					<g>
						<g>
							<g>
								<rect x="242.908" y="467.83" style="fill:#FFFFFF;" width="0.616" height="0.616"/>
							</g>
							<g>
								<rect x="254.827" y="467.83" style="fill:#FFFFFF;" width="0.616" height="0.616"/>
							</g>
							<g>
								<path style="fill:#FFFFFF;" d="M255.205,468.082h-0.14c0-3.248-2.642-5.89-5.89-5.89c-3.248,0-5.89,2.642-5.89,5.89h-0.14
									c0-1.611,0.627-3.125,1.766-4.264c1.139-1.139,2.653-1.766,4.264-1.766c1.611,0,3.125,0.627,4.264,1.766
									C254.578,464.957,255.205,466.471,255.205,468.082"/>
							</g>
						</g>
						<g>
							<rect x="248.868" y="461.814" style="fill:#FFFFFF;" width="0.616" height="0.616"/>
						</g>
						<g>
							<rect x="244.95" y="462.052" style="fill:#FFFFFF;" width="8.45" height="0.14"/>
						</g>
						<g>
							<path style="fill:#FFFFFF;" d="M245.174,462.15c0,0.108-0.088,0.196-0.196,0.196c-0.108,0-0.196-0.088-0.196-0.196
								c0-0.108,0.088-0.196,0.196-0.196C245.086,461.954,245.174,462.042,245.174,462.15"/>
						</g>
						<g>
							<path style="fill:#FFFFFF;" d="M253.596,462.15c0,0.108-0.088,0.196-0.196,0.196c-0.108,0-0.196-0.088-0.196-0.196
								c0-0.108,0.088-0.196,0.196-0.196C253.509,461.954,253.596,462.042,253.596,462.15"/>
						</g>
					</g>
				</g>
				<g>
					<path style="fill:#FFFFFF;" d="M314.356,473.409c0,1.559-2.364,1.559-2.364,0C311.993,471.851,314.356,471.851,314.356,473.409
						z"/>
				</g>
				<g>
					<g>
						<g>
							<path style="fill:#FFFFFF;" d="M161.739,466.549l1.772,6.088l1.855-6.088h2.215l-2.823,8.14h-2.33l-0.837-2.396l-0.722-2.708
								l-0.722,2.708l-0.837,2.396h-2.33l-2.839-8.14h2.231l1.855,6.088l1.756-6.088H161.739z"/>
						</g>
						<g>
							<path style="fill:#FFFFFF;" d="M176.713,466.549l1.772,6.088l1.855-6.088h2.215l-2.823,8.14h-2.33l-0.837-2.396l-0.722-2.708
								l-0.722,2.708l-0.837,2.396h-2.33l-2.839-8.14h2.231l1.855,6.088l1.756-6.088H176.713z"/>
						</g>
						<g>
							<path style="fill:#FFFFFF;" d="M191.687,466.549l1.772,6.088l1.855-6.088h2.215l-2.823,8.14h-2.33l-0.837-2.396l-0.722-2.708
								l-0.722,2.708l-0.837,2.396h-2.33l-2.839-8.14h2.231l1.855,6.088l1.756-6.088H191.687z"/>
						</g>
					</g>
					<g>
						<path style="fill:#FFFFFF;" d="M200.908,473.52c0,1.559-2.364,1.559-2.364,0C198.545,471.962,200.908,471.962,200.908,473.52z
							"/>
					</g>
					<g>
						<path style="fill:#FFFFFF;" d="M322.71,473.409c-0.935,0.919-1.919,1.28-3.117,1.28c-2.346,0-4.3-1.411-4.3-4.282
							s1.953-4.284,4.3-4.284c1.149,0,2.035,0.329,2.921,1.199l-1.264,1.329c-0.476-0.428-1.066-0.64-1.623-0.64
							c-1.346,0-2.33,0.985-2.33,2.396c0,1.542,1.05,2.362,2.297,2.362c0.64,0,1.28-0.18,1.772-0.672L322.71,473.409z"/>
					</g>
					<g>
						<path style="fill:#FFFFFF;" d="M331.805,470.472c0,2.33-1.591,4.217-4.217,4.217c-2.626,0-4.201-1.887-4.201-4.217
							c0-2.314,1.609-4.217,4.185-4.217C330.149,466.255,331.805,468.158,331.805,470.472z M325.389,470.472
							c0,1.231,0.739,2.38,2.199,2.38c1.46,0,2.199-1.149,2.199-2.38c0-1.215-0.854-2.396-2.199-2.396
							C326.144,468.077,325.389,469.258,325.389,470.472z"/>
					</g>
					<g>
						<path style="fill:#FFFFFF;" d="M338.572,474.689v-4.332c0-1.068-0.559-2.035-1.658-2.035c-1.082,0-1.722,0.967-1.722,2.035
							v4.332h-2.003v-8.107h1.855l0.148,0.985c0.426-0.82,1.362-1.116,2.133-1.116c0.969,0,1.937,0.394,2.396,1.51
							c0.723-1.149,1.658-1.478,2.708-1.478c2.297,0,3.43,1.412,3.43,3.84v4.365h-2.003v-4.365c0-1.066-0.442-1.97-1.526-1.97
							c-1.082,0-1.756,0.935-1.756,2.003v4.332H338.572z"/>
					</g>
				</g>
			</g>
		</g>
		<g style="opacity:0.61;">
			<g>
				<g>
					<path style="fill:#FFFFFF;" d="M345.988,431.299c-0.006-1.224-0.959-2.121-2.189-2.14c-0.924-0.014-0.832,0.12-0.834-0.867
						c-0.003-1.097-0.007-2.194,0.003-3.292c0.003-0.379-0.112-0.691-0.362-0.976c-2.342-2.668-4.678-5.342-7.019-8.011
						c-0.12-0.137-0.275-0.244-0.414-0.366c-6.214,0-12.427,0-18.641,0c-0.794,0.293-1.14,0.868-1.138,1.709
						c0.01,3.748,0.004,7.496,0.004,11.243c0,0.556-0.003,0.589-0.55,0.551c-1.497-0.102-2.516,0.986-2.497,2.492
						c0.044,3.476,0.013,6.953,0.014,10.429c0.001,1.58,0.867,2.443,2.45,2.449c0.582,0.002,0.582,0.002,0.582,0.6
						c0,2.219-0.001,4.438,0.001,6.657c0.001,1.192,0.58,1.771,1.768,1.771c8.013,0.001,16.027,0.001,24.04,0
						c1.168,0,1.755-0.583,1.757-1.745c0.002-2.256,0-4.512,0.001-6.768c0-0.512,0.002-0.511,0.52-0.515
						c0.271-0.002,0.541,0.008,0.809-0.058c0.996-0.246,1.69-1.044,1.694-2.069C346.003,438.696,346.005,434.997,345.988,431.299z
						 M317.537,417.162c5.337,0,10.674,0,16.01,0c0.548,0,0.554,0.007,0.554,0.561c0.001,2.243-0.001,4.486,0.001,6.73
						c0.001,0.811,0.249,1.059,1.06,1.059c1.91,0.001,3.821,0,5.731,0.001c0.458,0,0.479,0.021,0.481,0.483
						c0.003,0.887,0.002,1.775,0,2.662c-0.001,0.477-0.024,0.498-0.504,0.499c-3.895,0.001-7.79,0-11.684,0
						c-3.882,0-7.765,0-11.647,0c-0.55,0-0.552-0.001-0.552-0.561c-0.001-3.624-0.001-7.247,0-10.871
						C316.987,417.166,316.991,417.162,317.537,417.162z M340.822,451.579c-3.883,0.001-7.766,0-11.65,0c-3.871,0-7.742,0-11.613,0
						c-0.572,0-0.574-0.002-0.574-0.579c-0.001-1.997-0.001-3.994,0.001-5.991c0-0.464,0.023-0.486,0.478-0.487
						c7.803-0.001,15.607-0.001,23.41,0c0.478,0,0.499,0.02,0.499,0.503c0.002,1.997,0.001,3.994,0,5.991
						C341.375,451.574,341.37,451.579,340.822,451.579z"/>
				</g>
				<g>
					<g>
						<rect x="327.418" y="417.053" style="fill:#FFFFFF;" width="1.757" height="1.054"/>
					</g>
					<g>
						<rect x="325.662" y="418.107" style="fill:#FFFFFF;" width="1.757" height="1.054"/>
					</g>
					<g>
						<rect x="327.418" y="419.161" style="fill:#FFFFFF;" width="1.757" height="1.054"/>
					</g>
					<g>
						<rect x="325.662" y="420.215" style="fill:#FFFFFF;" width="1.757" height="1.054"/>
					</g>
					<g>
						<rect x="327.418" y="421.269" style="fill:#FFFFFF;" width="1.757" height="1.054"/>
					</g>
					<g>
						<rect x="325.662" y="422.323" style="fill:#FFFFFF;" width="1.757" height="1.054"/>
					</g>
					<g>
						<rect x="327.418" y="423.378" style="fill:#FFFFFF;" width="1.757" height="1.054"/>
					</g>
					<g>
						<rect x="325.662" y="424.432" style="fill:#FFFFFF;" width="1.757" height="1.054"/>
					</g>
					<g>
						<rect x="327.418" y="425.486" style="fill:#FFFFFF;" width="1.757" height="1.054"/>
					</g>
					<g>
						<rect x="325.662" y="426.54" style="fill:#FFFFFF;" width="1.757" height="1.054"/>
					</g>
					<g>
						<rect x="327.418" y="427.594" style="fill:#FFFFFF;" width="1.757" height="1.054"/>
					</g>
					<g>
						<rect x="325.662" y="428.648" style="fill:#FFFFFF;" width="1.757" height="1.054"/>
					</g>
				</g>
			</g>
			<g>
				<path style="fill:#FFFFFF;" d="M187.637,431.299c-0.006-1.224-0.959-2.121-2.189-2.14c-0.924-0.014-0.832,0.12-0.834-0.867
					c-0.003-1.097-0.007-2.194,0.003-3.292c0.003-0.379-0.112-0.691-0.362-0.976c-2.342-2.668-4.678-5.342-7.019-8.011
					c-0.12-0.137-0.275-0.244-0.414-0.366c-6.214,0-12.427,0-18.641,0c-0.794,0.293-1.14,0.868-1.138,1.709
					c0.01,3.748,0.004,7.496,0.004,11.243c0,0.556-0.003,0.589-0.55,0.551c-1.497-0.102-2.516,0.986-2.497,2.492
					c0.044,3.476,0.013,6.953,0.014,10.429c0.001,1.58,0.867,2.443,2.45,2.449c0.582,0.002,0.582,0.002,0.582,0.6
					c0,2.219-0.001,4.438,0.001,6.657c0.001,1.192,0.58,1.771,1.768,1.771c8.013,0.001,16.027,0.001,24.04,0
					c1.168,0,1.755-0.583,1.757-1.745c0.002-2.256,0-4.512,0.001-6.768c0-0.512,0.002-0.511,0.52-0.515
					c0.271-0.002,0.541,0.008,0.809-0.058c0.996-0.246,1.69-1.044,1.694-2.069C187.652,438.696,187.655,434.997,187.637,431.299z
					 M159.187,417.162c5.337,0,10.674,0,16.01,0c0.548,0,0.554,0.007,0.554,0.561c0.001,2.243-0.001,4.486,0.001,6.73
					c0.001,0.811,0.249,1.059,1.06,1.059c1.91,0.001,3.821,0,5.731,0.001c0.458,0,0.479,0.021,0.481,0.483
					c0.003,0.887,0.002,1.775,0,2.662c-0.001,0.477-0.024,0.498-0.504,0.499c-3.895,0.001-7.79,0-11.684,0
					c-3.882,0-7.765,0-11.647,0c-0.55,0-0.552-0.001-0.552-0.561c-0.001-3.624-0.001-7.247,0-10.871
					C158.636,417.166,158.64,417.162,159.187,417.162z M182.472,451.579c-3.883,0.001-7.766,0-11.65,0c-3.871,0-7.742,0-11.613,0
					c-0.572,0-0.574-0.002-0.574-0.579c-0.001-1.997-0.001-3.994,0.001-5.991c0-0.464,0.023-0.486,0.478-0.487
					c7.803-0.001,15.607-0.001,23.41,0c0.478,0,0.499,0.02,0.499,0.503c0.002,1.997,0.001,3.994,0,5.991
					C183.024,451.574,183.019,451.579,182.472,451.579z"/>
			</g>
			<g>
				<path style="fill:#FFFFFF;" d="M159.779,440.669v-7.897h2.779c0.375,0,0.726,0.061,1.053,0.182
					c0.327,0.121,0.612,0.292,0.855,0.513c0.242,0.221,0.434,0.483,0.573,0.789c0.14,0.305,0.21,0.642,0.21,1.009
					c0,0.375-0.07,0.715-0.21,1.02c-0.14,0.305-0.331,0.568-0.573,0.789c-0.243,0.221-0.528,0.392-0.855,0.513
					c-0.327,0.121-0.678,0.182-1.053,0.182h-1.29v2.901H159.779z M162.58,436.356c0.39,0,0.684-0.111,0.882-0.331
					c0.199-0.22,0.298-0.474,0.298-0.761c0-0.14-0.024-0.276-0.072-0.408c-0.048-0.132-0.121-0.248-0.221-0.347
					c-0.099-0.099-0.223-0.178-0.37-0.237c-0.147-0.059-0.32-0.089-0.518-0.089h-1.312v2.173H162.58z"/>
				<path style="fill:#FFFFFF;" d="M166.308,432.771h1.731l3.177,5.294h0.088l-0.088-1.522v-3.772h1.478v7.897h-1.566l-3.353-5.592
					h-0.088l0.088,1.522v4.07h-1.467V432.771z"/>
				<path style="fill:#FFFFFF;" d="M177.922,436.334h3.872c0.022,0.089,0.04,0.195,0.055,0.32c0.014,0.125,0.022,0.25,0.022,0.375
					c0,0.507-0.077,0.985-0.231,1.434c-0.154,0.449-0.397,0.849-0.728,1.202c-0.353,0.375-0.776,0.666-1.268,0.871
					c-0.493,0.206-1.055,0.309-1.688,0.309c-0.574,0-1.114-0.103-1.622-0.309c-0.507-0.206-0.948-0.492-1.323-0.86
					c-0.375-0.367-0.673-0.803-0.894-1.307c-0.221-0.504-0.331-1.053-0.331-1.649c0-0.595,0.11-1.145,0.331-1.649
					c0.221-0.504,0.518-0.939,0.894-1.307c0.375-0.367,0.816-0.654,1.323-0.86c0.507-0.206,1.048-0.309,1.622-0.309
					c0.64,0,1.211,0.11,1.715,0.331c0.504,0.221,0.935,0.526,1.296,0.915l-1.025,1.004c-0.258-0.272-0.544-0.48-0.861-0.623
					c-0.316-0.143-0.695-0.215-1.136-0.215c-0.361,0-0.703,0.065-1.026,0.193c-0.324,0.129-0.607,0.311-0.85,0.546
					c-0.242,0.235-0.436,0.52-0.579,0.855c-0.143,0.335-0.215,0.708-0.215,1.119c0,0.412,0.072,0.785,0.215,1.12
					c0.143,0.335,0.338,0.62,0.584,0.855c0.246,0.235,0.531,0.418,0.855,0.546c0.323,0.129,0.669,0.193,1.037,0.193
					c0.419,0,0.773-0.061,1.064-0.182c0.29-0.121,0.538-0.278,0.744-0.469c0.148-0.132,0.275-0.3,0.381-0.502
					c0.106-0.202,0.189-0.428,0.248-0.678h-2.482V436.334z"/>
			</g>
			<g>
				<path style="fill:#FFFFFF;" d="M224.019,431.299c-0.006-1.224-0.959-2.121-2.189-2.14c-0.924-0.014-0.832,0.12-0.834-0.867
					c-0.003-1.097-0.007-2.194,0.003-3.292c0.003-0.379-0.112-0.691-0.362-0.976c-2.342-2.668-4.678-5.342-7.019-8.011
					c-0.12-0.137-0.275-0.244-0.414-0.366c-6.214,0-12.427,0-18.641,0c-0.794,0.293-1.14,0.868-1.138,1.709
					c0.01,3.748,0.004,7.496,0.004,11.243c0,0.556-0.003,0.589-0.55,0.551c-1.497-0.102-2.516,0.986-2.497,2.492
					c0.044,3.476,0.013,6.953,0.014,10.429c0.001,1.58,0.867,2.443,2.45,2.449c0.582,0.002,0.582,0.002,0.582,0.6
					c0,2.219-0.001,4.438,0.001,6.657c0.001,1.192,0.58,1.771,1.768,1.771c8.013,0.001,16.027,0.001,24.04,0
					c1.168,0,1.755-0.583,1.757-1.745c0.002-2.256,0-4.512,0.001-6.768c0-0.512,0.002-0.511,0.52-0.515
					c0.271-0.002,0.541,0.008,0.809-0.058c0.997-0.246,1.69-1.044,1.694-2.069C224.034,438.696,224.036,434.997,224.019,431.299z
					 M195.568,417.162c5.337,0,10.674,0,16.01,0c0.548,0,0.554,0.007,0.554,0.561c0.001,2.243-0.001,4.486,0.001,6.73
					c0.001,0.811,0.249,1.059,1.06,1.059c1.91,0.001,3.821,0,5.731,0.001c0.458,0,0.479,0.021,0.481,0.483
					c0.003,0.887,0.002,1.775,0,2.662c-0.001,0.477-0.024,0.498-0.504,0.499c-3.895,0.001-7.79,0-11.684,0
					c-3.882,0-7.765,0-11.647,0c-0.55,0-0.552-0.001-0.552-0.561c-0.001-3.624-0.001-7.247,0-10.871
					C195.018,417.166,195.022,417.162,195.568,417.162z M218.854,451.579c-3.883,0.001-7.766,0-11.65,0c-3.871,0-7.742,0-11.613,0
					c-0.572,0-0.574-0.002-0.574-0.579c-0.001-1.997-0.001-3.994,0.001-5.991c0-0.464,0.023-0.486,0.478-0.487
					c7.803-0.001,15.607-0.001,23.41,0c0.478,0,0.499,0.02,0.499,0.503c0.002,1.997,0.001,3.994,0,5.991
					C219.406,451.574,219.401,451.579,218.854,451.579z"/>
			</g>
			<g>
				<path style="fill:#FFFFFF;" d="M205.111,432.771h1.699l2.967,7.897h-1.644l-0.651-1.886h-3.044l-0.651,1.886h-1.643
					L205.111,432.771z M206.997,437.415l-0.706-1.974l-0.287-0.96h-0.088l-0.287,0.96l-0.706,1.974H206.997z"/>
				<path style="fill:#FFFFFF;" d="M211.331,434.536c-0.125,0-0.245-0.024-0.359-0.072c-0.114-0.048-0.213-0.114-0.298-0.199
					c-0.084-0.084-0.151-0.182-0.198-0.292c-0.048-0.11-0.072-0.232-0.072-0.364s0.024-0.254,0.072-0.364
					c0.048-0.11,0.114-0.208,0.198-0.292c0.084-0.084,0.184-0.151,0.298-0.198c0.114-0.048,0.233-0.072,0.359-0.072
					c0.257,0,0.478,0.09,0.662,0.27c0.184,0.181,0.276,0.399,0.276,0.656s-0.092,0.476-0.276,0.656
					C211.809,434.446,211.589,434.536,211.331,434.536z M210.615,440.669v-5.404h1.445v5.404H210.615z"/>
			</g>
			<g>
				<path style="fill:#FFFFFF;" d="M261.044,431.299c-0.006-1.224-0.959-2.121-2.189-2.14c-0.924-0.014-0.832,0.12-0.834-0.867
					c-0.003-1.097-0.007-2.194,0.003-3.292c0.003-0.379-0.112-0.691-0.362-0.976c-2.342-2.668-4.678-5.342-7.019-8.011
					c-0.12-0.137-0.275-0.244-0.414-0.366c-6.214,0-12.427,0-18.641,0c-0.794,0.293-1.14,0.868-1.138,1.709
					c0.01,3.748,0.004,7.496,0.004,11.243c0,0.556-0.003,0.589-0.55,0.551c-1.497-0.102-2.516,0.986-2.497,2.492
					c0.044,3.476,0.013,6.953,0.014,10.429c0.001,1.58,0.867,2.443,2.45,2.449c0.582,0.002,0.582,0.002,0.582,0.6
					c0,2.219-0.001,4.438,0.001,6.657c0.001,1.192,0.58,1.771,1.768,1.771c8.013,0.001,16.027,0.001,24.04,0
					c1.168,0,1.755-0.583,1.757-1.745c0.002-2.256,0-4.512,0.001-6.768c0-0.512,0.002-0.511,0.52-0.515
					c0.271-0.002,0.541,0.008,0.809-0.058c0.996-0.246,1.69-1.044,1.694-2.069C261.059,438.696,261.061,434.997,261.044,431.299z
					 M232.593,417.162c5.337,0,10.674,0,16.01,0c0.548,0,0.554,0.007,0.554,0.561c0.001,2.243-0.001,4.486,0.001,6.73
					c0.001,0.811,0.249,1.059,1.06,1.059c1.91,0.001,3.821,0,5.731,0.001c0.458,0,0.479,0.021,0.481,0.483
					c0.003,0.887,0.002,1.775,0,2.662c-0.001,0.477-0.024,0.498-0.504,0.499c-3.895,0.001-7.79,0-11.684,0
					c-3.882,0-7.765,0-11.647,0c-0.55,0-0.552-0.001-0.552-0.561c-0.001-3.624-0.001-7.247,0-10.871
					C232.042,417.166,232.047,417.162,232.593,417.162z M255.878,451.579c-3.883,0.001-7.766,0-11.65,0c-3.871,0-7.742,0-11.613,0
					c-0.572,0-0.574-0.002-0.574-0.579c-0.001-1.997-0.001-3.994,0.001-5.991c0-0.464,0.023-0.486,0.478-0.487
					c7.803-0.001,15.607-0.001,23.41,0c0.478,0,0.499,0.02,0.499,0.503c0.002,1.997,0.001,3.994,0,5.991
					C256.431,451.574,256.426,451.579,255.878,451.579z"/>
			</g>
			<g>
				<path style="fill:#FFFFFF;" d="M236.361,440.845c-0.338,0-0.662-0.048-0.971-0.143c-0.309-0.095-0.592-0.239-0.849-0.43
					c-0.257-0.191-0.481-0.425-0.673-0.7c-0.191-0.276-0.342-0.597-0.452-0.965l1.401-0.551c0.103,0.397,0.283,0.726,0.54,0.987
					c0.257,0.261,0.596,0.392,1.015,0.392c0.154,0,0.303-0.02,0.447-0.061c0.143-0.04,0.272-0.099,0.386-0.176
					s0.204-0.175,0.27-0.292c0.066-0.118,0.099-0.254,0.099-0.408c0-0.147-0.026-0.279-0.077-0.397
					c-0.051-0.117-0.138-0.227-0.259-0.331c-0.121-0.103-0.28-0.202-0.475-0.298c-0.195-0.095-0.435-0.195-0.722-0.298l-0.485-0.176
					c-0.213-0.073-0.429-0.173-0.645-0.298c-0.217-0.125-0.413-0.276-0.59-0.452c-0.177-0.176-0.322-0.384-0.436-0.623
					c-0.114-0.239-0.171-0.509-0.171-0.81c0-0.309,0.06-0.597,0.182-0.866c0.121-0.268,0.294-0.503,0.518-0.706
					c0.224-0.202,0.492-0.36,0.805-0.474s0.66-0.171,1.042-0.171c0.397,0,0.74,0.053,1.031,0.16
					c0.291,0.107,0.537,0.243,0.739,0.408c0.202,0.165,0.366,0.348,0.491,0.546c0.125,0.199,0.217,0.386,0.276,0.563l-1.312,0.551
					c-0.074-0.221-0.208-0.419-0.402-0.596c-0.195-0.176-0.462-0.265-0.8-0.265c-0.324,0-0.592,0.075-0.805,0.226
					c-0.213,0.151-0.32,0.348-0.32,0.59c0,0.235,0.103,0.436,0.309,0.601c0.206,0.165,0.533,0.325,0.982,0.48l0.497,0.165
					c0.316,0.111,0.605,0.237,0.866,0.381c0.261,0.143,0.485,0.314,0.673,0.513c0.187,0.199,0.331,0.425,0.43,0.678
					c0.1,0.254,0.149,0.546,0.149,0.877c0,0.412-0.083,0.767-0.248,1.064c-0.165,0.298-0.377,0.542-0.634,0.734
					c-0.258,0.191-0.548,0.335-0.872,0.43C236.986,440.797,236.67,440.845,236.361,440.845z"/>
				<path style="fill:#FFFFFF;" d="M239.516,432.771h1.61l1.633,4.754l0.287,1.015h0.088l0.309-1.015l1.699-4.754h1.61l-2.879,7.897
					h-1.566L239.516,432.771z"/>
				<path style="fill:#FFFFFF;" d="M251.097,436.334h3.871c0.022,0.089,0.04,0.195,0.055,0.32c0.015,0.125,0.023,0.25,0.023,0.375
					c0,0.507-0.078,0.985-0.232,1.434c-0.154,0.449-0.397,0.849-0.728,1.202c-0.353,0.375-0.775,0.666-1.268,0.871
					c-0.493,0.206-1.055,0.309-1.688,0.309c-0.574,0-1.114-0.103-1.621-0.309c-0.507-0.206-0.949-0.492-1.324-0.86
					c-0.375-0.367-0.673-0.803-0.894-1.307c-0.22-0.504-0.331-1.053-0.331-1.649c0-0.595,0.11-1.145,0.331-1.649
					c0.221-0.504,0.518-0.939,0.894-1.307c0.375-0.367,0.816-0.654,1.324-0.86c0.507-0.206,1.047-0.309,1.621-0.309
					c0.64,0,1.211,0.11,1.715,0.331c0.504,0.221,0.936,0.526,1.296,0.915l-1.026,1.004c-0.257-0.272-0.544-0.48-0.861-0.623
					c-0.316-0.143-0.694-0.215-1.136-0.215c-0.36,0-0.702,0.065-1.026,0.193c-0.323,0.129-0.607,0.311-0.849,0.546
					c-0.243,0.235-0.436,0.52-0.579,0.855c-0.143,0.335-0.215,0.708-0.215,1.119c0,0.412,0.072,0.785,0.215,1.12
					c0.143,0.335,0.338,0.62,0.585,0.855c0.246,0.235,0.531,0.418,0.854,0.546c0.324,0.129,0.669,0.193,1.037,0.193
					c0.419,0,0.774-0.061,1.064-0.182c0.29-0.121,0.539-0.278,0.745-0.469c0.147-0.132,0.274-0.3,0.38-0.502
					c0.107-0.202,0.189-0.428,0.248-0.678h-2.482V436.334z"/>
			</g>
			<g>
				<path style="fill:#FFFFFF;" d="M297.3,431.299c-0.006-1.224-0.959-2.121-2.189-2.14c-0.924-0.014-0.832,0.12-0.834-0.867
					c-0.003-1.097-0.007-2.194,0.003-3.292c0.003-0.379-0.112-0.691-0.362-0.976c-2.342-2.668-4.678-5.342-7.019-8.011
					c-0.12-0.137-0.275-0.244-0.414-0.366c-6.214,0-12.427,0-18.641,0c-0.794,0.293-1.14,0.868-1.138,1.709
					c0.01,3.748,0.004,7.496,0.004,11.243c0,0.556-0.003,0.589-0.55,0.551c-1.497-0.102-2.516,0.986-2.497,2.492
					c0.044,3.476,0.013,6.953,0.014,10.429c0.001,1.58,0.867,2.443,2.45,2.449c0.582,0.002,0.582,0.002,0.582,0.6
					c0,2.219-0.001,4.438,0.001,6.657c0.001,1.192,0.58,1.771,1.768,1.771c8.013,0.001,16.027,0.001,24.04,0
					c1.168,0,1.755-0.583,1.757-1.745c0.002-2.256,0-4.512,0.001-6.768c0-0.512,0.002-0.511,0.52-0.515
					c0.271-0.002,0.541,0.008,0.809-0.058c0.996-0.246,1.69-1.044,1.694-2.069C297.315,438.696,297.318,434.997,297.3,431.299z
					 M268.85,417.162c5.337,0,10.674,0,16.01,0c0.548,0,0.554,0.007,0.554,0.561c0.001,2.243-0.001,4.486,0.001,6.73
					c0.001,0.811,0.249,1.059,1.06,1.059c1.91,0.001,3.821,0,5.731,0.001c0.458,0,0.479,0.021,0.481,0.483
					c0.003,0.887,0.002,1.775,0,2.662c-0.001,0.477-0.024,0.498-0.504,0.499c-3.895,0.001-7.79,0-11.684,0
					c-3.882,0-7.765,0-11.647,0c-0.55,0-0.552-0.001-0.552-0.561c-0.001-3.624-0.001-7.247,0-10.871
					C268.299,417.166,268.303,417.162,268.85,417.162z M292.135,451.579c-3.883,0.001-7.766,0-11.65,0c-3.871,0-7.742,0-11.613,0
					c-0.572,0-0.574-0.002-0.574-0.579c-0.001-1.997-0.001-3.994,0.001-5.991c0-0.464,0.023-0.486,0.478-0.487
					c7.803-0.001,15.607-0.001,23.41,0c0.478,0,0.499,0.02,0.499,0.503c0.001,1.997,0.001,3.994,0,5.991
					C292.687,451.574,292.682,451.579,292.135,451.579z"/>
			</g>
			<g>
				<path style="fill:#FFFFFF;" d="M272.966,434.183v1.831h3.165v1.412h-3.165v1.831h3.518v1.412h-5.007v-7.897h5.007v1.412H272.966
					z"/>
				<path style="fill:#FFFFFF;" d="M277.852,440.669v-7.897h2.779c0.375,0,0.726,0.061,1.053,0.182
					c0.327,0.121,0.612,0.292,0.855,0.513c0.243,0.221,0.434,0.483,0.574,0.789c0.14,0.305,0.209,0.642,0.209,1.009
					c0,0.375-0.07,0.715-0.209,1.02c-0.14,0.305-0.331,0.568-0.574,0.789c-0.243,0.221-0.528,0.392-0.855,0.513
					c-0.327,0.121-0.678,0.182-1.053,0.182h-1.29v2.901H277.852z M280.653,436.356c0.389,0,0.684-0.111,0.882-0.331
					c0.199-0.22,0.298-0.474,0.298-0.761c0-0.14-0.024-0.276-0.072-0.408c-0.048-0.132-0.121-0.248-0.221-0.347
					c-0.099-0.099-0.222-0.178-0.37-0.237c-0.147-0.059-0.32-0.089-0.518-0.089h-1.312v2.173H280.653z"/>
				<path style="fill:#FFFFFF;" d="M286.797,440.845c-0.338,0-0.662-0.048-0.971-0.143c-0.309-0.095-0.592-0.239-0.849-0.43
					c-0.257-0.191-0.482-0.425-0.673-0.7c-0.191-0.276-0.342-0.597-0.452-0.965l1.401-0.551c0.103,0.397,0.283,0.726,0.541,0.987
					c0.257,0.261,0.595,0.392,1.015,0.392c0.154,0,0.303-0.02,0.447-0.061c0.143-0.04,0.272-0.099,0.386-0.176
					c0.114-0.077,0.204-0.175,0.27-0.292c0.066-0.118,0.1-0.254,0.1-0.408c0-0.147-0.026-0.279-0.077-0.397
					c-0.051-0.117-0.138-0.227-0.259-0.331c-0.121-0.103-0.279-0.202-0.474-0.298c-0.195-0.095-0.436-0.195-0.723-0.298
					l-0.485-0.176c-0.213-0.073-0.428-0.173-0.645-0.298c-0.217-0.125-0.414-0.276-0.59-0.452c-0.176-0.176-0.322-0.384-0.436-0.623
					c-0.114-0.239-0.171-0.509-0.171-0.81c0-0.309,0.061-0.597,0.182-0.866c0.121-0.268,0.294-0.503,0.518-0.706
					c0.224-0.202,0.493-0.36,0.805-0.474c0.312-0.114,0.66-0.171,1.042-0.171c0.397,0,0.741,0.053,1.031,0.16
					c0.29,0.107,0.537,0.243,0.739,0.408c0.202,0.165,0.365,0.348,0.491,0.546c0.125,0.199,0.217,0.386,0.276,0.563l-1.312,0.551
					c-0.074-0.221-0.208-0.419-0.403-0.596c-0.195-0.176-0.462-0.265-0.799-0.265c-0.324,0-0.592,0.075-0.805,0.226
					c-0.213,0.151-0.32,0.348-0.32,0.59c0,0.235,0.103,0.436,0.309,0.601c0.206,0.165,0.533,0.325,0.982,0.48l0.496,0.165
					c0.316,0.111,0.605,0.237,0.866,0.381c0.261,0.143,0.485,0.314,0.673,0.513c0.187,0.199,0.331,0.425,0.43,0.678
					c0.099,0.254,0.149,0.546,0.149,0.877c0,0.412-0.083,0.767-0.248,1.064c-0.165,0.298-0.377,0.542-0.634,0.734
					c-0.258,0.191-0.548,0.335-0.872,0.43C287.422,440.797,287.105,440.845,286.797,440.845z"/>
			</g>
			<g>
				<path style="fill:#FFFFFF;" d="M321.394,439.168l4.004-4.985h-3.827v-1.412h5.559v1.5l-3.96,4.985h4.004v1.412h-5.779V439.168z"
					/>
				<path style="fill:#FFFFFF;" d="M328.409,432.771h1.489v7.897h-1.489V432.771z"/>
				<path style="fill:#FFFFFF;" d="M331.486,440.669v-7.897h2.779c0.375,0,0.726,0.061,1.053,0.182
					c0.327,0.121,0.612,0.292,0.855,0.513s0.434,0.483,0.574,0.789c0.14,0.305,0.209,0.642,0.209,1.009
					c0,0.375-0.07,0.715-0.209,1.02c-0.14,0.305-0.331,0.568-0.574,0.789c-0.243,0.221-0.528,0.392-0.855,0.513
					c-0.327,0.121-0.678,0.182-1.053,0.182h-1.29v2.901H331.486z M334.288,436.356c0.389,0,0.684-0.111,0.882-0.331
					c0.199-0.22,0.298-0.474,0.298-0.761c0-0.14-0.024-0.276-0.072-0.408c-0.048-0.132-0.121-0.248-0.221-0.347
					c-0.099-0.099-0.222-0.178-0.37-0.237c-0.147-0.059-0.32-0.089-0.518-0.089h-1.312v2.173H334.288z"/>
			</g>
		</g>
		<g style="opacity:0.61;">
			<path style="fill:#FFFFFF;" d="M300.133,433.27h9.067v2.242h-9.067V433.27z M300.133,437.136h9.067v2.243h-9.067V437.136z"/>
		</g>
	</g>
	<g style="opacity:0.61;">
		<path style="fill:#FFFFFF;" d="M156.756,478.878h1.607c1.263,0,2.114,0.812,2.114,1.974c0,1.161-0.851,1.973-2.114,1.973h-1.607
			V478.878z M158.34,482.464c1.049,0,1.725-0.665,1.725-1.612c0-0.947-0.677-1.613-1.725-1.613h-1.167v3.225H158.34z"/>
		<path style="fill:#FFFFFF;" d="M165.139,480.851c0-1.15,0.879-2.007,2.075-2.007c1.184,0,2.069,0.851,2.069,2.007
			c0,1.156-0.885,2.007-2.069,2.007C166.019,482.858,165.139,482.002,165.139,480.851z M168.866,480.851
			c0-0.942-0.705-1.635-1.652-1.635c-0.953,0-1.663,0.693-1.663,1.635c0,0.941,0.71,1.635,1.663,1.635
			C168.162,482.486,168.866,481.793,168.866,480.851z"/>
		<path style="fill:#FFFFFF;" d="M179.596,478.878l-1.331,3.947h-0.44l-1.156-3.366l-1.161,3.366h-0.434l-1.331-3.947h0.429
			l1.139,3.394l1.178-3.394h0.389l1.161,3.411l1.156-3.411H179.596z"/>
		<path style="fill:#FFFFFF;" d="M187.731,478.878v3.947h-0.344l-2.537-3.202v3.202h-0.417v-3.947h0.344l2.543,3.203v-3.203H187.731
			z"/>
		<path style="fill:#FFFFFF;" d="M193.093,478.878h0.417v3.586h2.21v0.361h-2.627V478.878z"/>
		<path style="fill:#FFFFFF;" d="M200.061,480.851c0-1.15,0.879-2.007,2.075-2.007c1.184,0,2.069,0.851,2.069,2.007
			c0,1.156-0.885,2.007-2.069,2.007C200.941,482.858,200.061,482.002,200.061,480.851z M203.788,480.851
			c0-0.942-0.705-1.635-1.652-1.635c-0.953,0-1.663,0.693-1.663,1.635c0,0.941,0.71,1.635,1.663,1.635
			C203.083,482.486,203.788,481.793,203.788,480.851z"/>
		<path style="fill:#FFFFFF;" d="M211.636,481.77h-2.199l-0.474,1.054h-0.434l1.804-3.947h0.412l1.804,3.947h-0.44L211.636,481.77z
			 M211.484,481.432l-0.947-2.12l-0.947,2.12H211.484z"/>
		<path style="fill:#FFFFFF;" d="M217.28,478.878h1.607c1.263,0,2.114,0.812,2.114,1.974c0,1.161-0.851,1.973-2.114,1.973h-1.607
			V478.878z M218.864,482.464c1.049,0,1.725-0.665,1.725-1.612c0-0.947-0.677-1.613-1.725-1.613h-1.167v3.225H218.864z"/>
		<path style="fill:#FFFFFF;" d="M234.041,481.77h-2.199l-0.474,1.054h-0.434l1.804-3.947h0.412l1.804,3.947h-0.44L234.041,481.77z
			 M233.889,481.432l-0.947-2.12l-0.947,2.12H233.889z"/>
		<path style="fill:#FFFFFF;" d="M239.685,478.878h0.417v3.586h2.21v0.361h-2.627V478.878z"/>
		<path style="fill:#FFFFFF;" d="M247.082,478.878h0.417v3.586h2.21v0.361h-2.627V478.878z"/>
		<path style="fill:#FFFFFF;" d="M260.449,479.239v1.551h2.041v0.361h-2.041v1.675h-0.417v-3.947h2.706v0.361H260.449z"/>
		<path style="fill:#FFFFFF;" d="M267.678,478.878h0.417v3.947h-0.417V478.878z"/>
		<path style="fill:#FFFFFF;" d="M273.456,478.878h0.417v3.586h2.21v0.361h-2.627V478.878z"/>
		<path style="fill:#FFFFFF;" d="M283.644,482.464v0.361h-2.791v-3.947h2.706v0.361h-2.289v1.404h2.041v0.355h-2.041v1.466H283.644z
			"/>
		<path style="fill:#FFFFFF;" d="M294.672,479.239v1.551h2.041v0.361h-2.041v1.675h-0.417v-3.947h2.706v0.361H294.672z"/>
		<path style="fill:#FFFFFF;" d="M301.5,480.851c0-1.15,0.879-2.007,2.075-2.007c1.184,0,2.069,0.851,2.069,2.007
			c0,1.156-0.885,2.007-2.069,2.007C302.379,482.858,301.5,482.002,301.5,480.851z M305.226,480.851
			c0-0.942-0.705-1.635-1.652-1.635c-0.953,0-1.663,0.693-1.663,1.635c0,0.941,0.71,1.635,1.663,1.635
			C304.522,482.486,305.226,481.793,305.226,480.851z"/>
		<path style="fill:#FFFFFF;" d="M313.351,482.825l-0.902-1.269c-0.102,0.011-0.203,0.017-0.316,0.017h-1.06v1.252h-0.417v-3.947
			h1.477c1.004,0,1.613,0.507,1.613,1.353c0,0.62-0.327,1.054-0.902,1.24l0.964,1.353H313.351z M313.328,480.231
			c0-0.632-0.417-0.992-1.207-0.992h-1.048v1.979h1.048C312.911,481.218,313.328,480.851,313.328,480.231z"/>
		<path style="fill:#FFFFFF;" d="M322.907,478.878v3.947h-0.4v-3.158l-1.551,2.656h-0.197l-1.551-2.639v3.14h-0.4v-3.947h0.344
			l1.714,2.926l1.697-2.926H322.907z"/>
		<path style="fill:#FFFFFF;" d="M330.744,481.77h-2.199l-0.473,1.054h-0.434l1.804-3.947h0.411l1.804,3.947h-0.44L330.744,481.77z
			 M330.592,481.432l-0.947-2.12l-0.947,2.12H330.592z"/>
		<path style="fill:#FFFFFF;" d="M336.957,479.239h-1.387v-0.361h3.192v0.361h-1.387v3.586h-0.417V479.239z"/>
		<path style="fill:#FFFFFF;" d="M343.063,482.346l0.164-0.321c0.282,0.276,0.784,0.479,1.302,0.479c0.739,0,1.06-0.31,1.06-0.699
			c0-1.083-2.43-0.417-2.43-1.877c0-0.581,0.451-1.083,1.455-1.083c0.446,0,0.908,0.13,1.224,0.35l-0.141,0.333
			c-0.338-0.22-0.733-0.327-1.083-0.327c-0.722,0-1.043,0.321-1.043,0.716c0,1.083,2.43,0.429,2.43,1.866
			c0,0.581-0.462,1.077-1.472,1.077C343.937,482.858,343.356,482.65,343.063,482.346z"/>
	</g>
</g>
<g>
</g>
<g>
	<path style="fill:#231F20;" d="M107.778,402.397v-18.365h2.681v2.605c0.578-0.905,1.327-1.624,2.281-2.175
		c0.951-0.555,2.015-0.817,3.224-0.817c1.357,0,2.449,0.285,3.316,0.84c0.837,0.57,1.445,1.365,1.821,2.369
		c1.437-2.137,3.312-3.209,5.616-3.209c1.791,0,3.175,0.498,4.156,1.509c0.951,1.008,1.441,2.563,1.441,4.646v12.597h-3.031v-11.548
		c0-1.24-0.114-2.125-0.316-2.688c-0.175-0.536-0.551-0.974-1.095-1.323c-0.517-0.327-1.122-0.498-1.844-0.498
		c-1.297,0-2.338,0.434-3.202,1.285c-0.837,0.863-1.27,2.228-1.27,4.122v10.65h-3.027v-11.913c0-1.373-0.251-2.422-0.779-3.103
		c-0.491-0.692-1.293-1.042-2.449-1.042c-0.863,0-1.673,0.24-2.422,0.692c-0.719,0.452-1.24,1.137-1.582,2.027
		c-0.323,0.878-0.494,2.164-0.494,3.825v9.513H107.778z"/>
	<path style="fill:#231F20;" d="M148.63,400.094c-1.095,0.989-2.183,1.688-3.259,2.095c-1.034,0.399-2.186,0.601-3.399,0.601
		c-2.019,0-3.544-0.49-4.639-1.471c-1.068-0.97-1.62-2.247-1.62-3.78c0-0.89,0.232-1.715,0.643-2.456
		c0.369-0.749,0.913-1.338,1.578-1.791c0.665-0.445,1.418-0.787,2.224-1.008c0.631-0.156,1.559-0.319,2.764-0.475
		c2.483-0.293,4.327-0.654,5.51-1.072c0.031-0.415,0.031-0.696,0.031-0.802c0-1.263-0.293-2.145-0.871-2.65
		c-0.802-0.699-1.985-1.053-3.544-1.053c-1.441,0-2.54,0.251-3.228,0.764c-0.688,0.491-1.209,1.396-1.529,2.673l-3.057-0.399
		c0.259-1.285,0.722-2.342,1.357-3.152c0.635-0.787,1.529-1.403,2.707-1.833c1.186-0.422,2.563-0.639,4.122-0.639
		c1.529,0,2.829,0.171,3.783,0.544c0.951,0.361,1.666,0.829,2.129,1.395c0.46,0.547,0.78,1.255,0.951,2.106
		c0.114,0.536,0.175,1.487,0.175,2.859v4.152c0,2.898,0.057,4.723,0.175,5.491c0.141,0.772,0.399,1.498,0.776,2.205h-3.167
		C148.919,401.744,148.721,400.972,148.63,400.094 M148.463,393.158c-1.126,0.453-2.825,0.856-5.107,1.175
		c-1.27,0.183-2.16,0.392-2.715,0.624c-0.51,0.236-0.92,0.563-1.209,1.015c-0.289,0.445-0.46,0.935-0.46,1.487
		c0,0.833,0.319,1.536,0.958,2.088c0.627,0.547,1.555,0.821,2.764,0.821c1.205,0,2.247-0.251,3.198-0.787
		c0.924-0.525,1.612-1.24,2.049-2.152c0.342-0.719,0.491-1.745,0.491-3.126L148.463,393.158z"/>
	<polygon style="fill:#231F20;" points="156.186,402.397 156.186,377.042 159.247,377.042 159.247,391.472 166.563,384.031 
		170.54,384.031 163.567,390.872 171.21,402.397 167.434,402.397 161.403,393.001 159.247,395.134 159.247,402.397 	"/>
	<path style="fill:#231F20;" d="M173.604,377.041h3.053v3.552h-3.053V377.041z M173.604,384.03h3.053v18.366h-3.053V384.03z"/>
	<path style="fill:#231F20;" d="M181.359,402.397v-18.365h2.768v2.605c1.293-1.989,3.224-2.992,5.707-2.992
		c1.091,0,2.076,0.194,3,0.589c0.89,0.399,1.578,0.928,2.046,1.567c0.46,0.647,0.776,1.411,0.951,2.308
		c0.114,0.567,0.144,1.567,0.144,3.015v11.274h-3.031v-11.148c0-1.27-0.11-2.221-0.342-2.837c-0.232-0.631-0.692-1.129-1.266-1.506
		c-0.639-0.373-1.331-0.566-2.164-0.566c-1.266,0-2.422,0.418-3.377,1.278c-0.947,0.825-1.411,2.415-1.411,4.768v10.012H181.359z"/>
	<path style="fill:#231F20;" d="M200.153,403.917l2.974,0.395c0.144,0.951,0.49,1.628,1.061,2.065
		c0.757,0.578,1.791,0.863,3.114,0.863c1.449,0,2.574-0.285,3.32-0.855c0.81-0.578,1.323-1.388,1.586-2.407
		c0.144-0.639,0.232-1.974,0.232-4.004c-1.357,1.62-3.027,2.422-5.05,2.422c-2.506,0-4.441-0.913-5.795-2.734
		c-1.376-1.81-2.042-3.985-2.042-6.525c0-1.768,0.285-3.373,0.916-4.867c0.639-1.468,1.532-2.612,2.742-3.414
		c1.183-0.81,2.593-1.213,4.209-1.213c2.137,0,3.89,0.878,5.308,2.646v-2.259h2.768v15.879c0,2.852-0.293,4.863-0.89,6.046
		c-0.582,1.224-1.475,2.152-2.715,2.844c-1.24,0.688-2.776,1.038-4.612,1.038c-2.133,0-3.897-0.498-5.194-1.483
		C200.762,407.381,200.096,405.902,200.153,403.917 M202.693,392.905c0,2.392,0.456,4.145,1.411,5.244
		c0.951,1.099,2.133,1.662,3.574,1.662c1.437,0,2.624-0.563,3.605-1.646c0.951-1.099,1.445-2.821,1.445-5.164
		c0-2.24-0.494-3.928-1.498-5.065c-0.985-1.133-2.164-1.707-3.578-1.707c-1.384,0-2.57,0.567-3.517,1.684
		C203.149,389.023,202.693,390.693,202.693,392.905"/>
	<path style="fill:#231F20;" d="M228.552,396.819l3.03-0.399c0.171,1.24,0.662,2.198,1.437,2.844
		c0.749,0.666,1.848,0.993,3.259,0.993c1.384,0,2.452-0.289,3.141-0.882c0.669-0.574,1.012-1.263,1.012-2.049
		c0-0.707-0.289-1.247-0.894-1.65c-0.403-0.282-1.468-0.639-3.141-1.068c-2.251-0.563-3.802-1.069-4.669-1.494
		c-0.897-0.414-1.559-0.985-1.989-1.745c-0.468-0.741-0.7-1.559-0.7-2.456c0-0.802,0.202-1.574,0.582-2.274
		c0.35-0.673,0.863-1.262,1.494-1.73c0.491-0.357,1.129-0.646,1.939-0.905c0.837-0.247,1.726-0.357,2.681-0.357
		c1.411,0,2.65,0.194,3.742,0.616c1.072,0.418,1.848,0.973,2.365,1.673c0.521,0.703,0.894,1.654,1.076,2.837l-3.008,0.384
		c-0.141-0.928-0.513-1.669-1.179-2.182c-0.662-0.528-1.559-0.787-2.741-0.787c-1.437,0-2.449,0.232-3.057,0.7
		c-0.601,0.483-0.894,1.03-0.894,1.662c0,0.426,0.118,0.78,0.376,1.099c0.262,0.335,0.639,0.608,1.179,0.833
		c0.297,0.11,1.217,0.395,2.715,0.802c2.164,0.578,3.688,1.069,4.525,1.441c0.863,0.376,1.529,0.92,2.019,1.612
		c0.494,0.734,0.722,1.605,0.722,2.673c0,1.03-0.289,2.004-0.894,2.917c-0.578,0.916-1.445,1.627-2.567,2.118
		c-1.125,0.506-2.392,0.749-3.837,0.749c-2.338,0-4.152-0.502-5.361-1.506C229.678,400.28,228.895,398.8,228.552,396.819"/>
	<path style="fill:#231F20;" d="M259.575,396.484l3.141,0.403c-0.494,1.863-1.441,3.327-2.764,4.358
		c-1.358,1.027-3.088,1.548-5.16,1.548c-2.658,0-4.73-0.825-6.289-2.475c-1.529-1.654-2.331-3.966-2.331-6.936
		c0-3.099,0.802-5.487,2.365-7.183c1.555-1.707,3.574-2.555,6.08-2.555c2.392,0,4.38,0.833,5.909,2.49
		c1.528,1.677,2.281,4.015,2.281,7.031v0.84h-13.468c0.114,2.027,0.692,3.567,1.669,4.65c1.042,1.061,2.281,1.605,3.783,1.605
		c1.152,0,2.099-0.3,2.878-0.901C258.48,398.765,259.088,397.807,259.575,396.484 M249.514,391.472h10.092
		c-0.114-1.551-0.517-2.719-1.152-3.483c-0.981-1.217-2.255-1.806-3.81-1.806c-1.407,0-2.567,0.46-3.544,1.434
		C250.149,388.575,249.601,389.852,249.514,391.472"/>
	<path style="fill:#231F20;" d="M266.584,402.397v-18.365h2.764v2.605c1.323-1.989,3.228-2.992,5.738-2.992
		c1.095,0,2.084,0.194,2.97,0.589c0.92,0.399,1.612,0.928,2.076,1.567c0.43,0.647,0.749,1.411,0.924,2.308
		c0.114,0.567,0.167,1.567,0.167,3.015v11.274h-3.027v-11.148c0-1.27-0.141-2.221-0.365-2.837c-0.236-0.631-0.662-1.129-1.274-1.506
		c-0.608-0.373-1.327-0.566-2.133-0.566c-1.3,0-2.426,0.418-3.373,1.278c-0.958,0.825-1.411,2.415-1.411,4.768v10.012H266.584z"/>
	<path style="fill:#231F20;" d="M284.714,396.819l3.027-0.399c0.202,1.24,0.662,2.198,1.441,2.844
		c0.787,0.666,1.878,0.993,3.255,0.993c1.445,0,2.483-0.289,3.148-0.882c0.688-0.574,1.038-1.263,1.038-2.049
		c0-0.707-0.319-1.247-0.897-1.65c-0.43-0.282-1.468-0.639-3.141-1.068c-2.247-0.563-3.802-1.069-4.696-1.494
		c-0.867-0.414-1.536-0.985-1.989-1.745c-0.433-0.741-0.669-1.559-0.669-2.456c0-0.802,0.179-1.574,0.555-2.274
		c0.365-0.673,0.894-1.262,1.494-1.73c0.49-0.357,1.156-0.646,1.962-0.905c0.833-0.247,1.703-0.357,2.65-0.357
		c1.441,0,2.681,0.194,3.784,0.616c1.061,0.418,1.84,0.973,2.357,1.673c0.521,0.703,0.867,1.654,1.068,2.837l-2.996,0.384
		c-0.144-0.928-0.544-1.669-1.186-2.182c-0.662-0.528-1.586-0.787-2.764-0.787c-1.411,0-2.426,0.232-3.027,0.7
		c-0.612,0.483-0.894,1.03-0.894,1.662c0,0.426,0.114,0.78,0.35,1.099c0.259,0.335,0.658,0.608,1.175,0.833
		c0.316,0.11,1.24,0.395,2.711,0.802c2.186,0.578,3.692,1.069,4.559,1.441c0.863,0.376,1.525,0.92,2.019,1.612
		c0.483,0.734,0.715,1.605,0.715,2.673c0,1.03-0.316,2.004-0.894,2.917c-0.601,0.916-1.437,1.627-2.597,2.118
		c-1.091,0.506-2.392,0.749-3.802,0.749c-2.365,0-4.152-0.502-5.392-1.506C285.87,400.28,285.06,398.8,284.714,396.819"/>
	<path style="fill:#231F20;" d="M315.741,396.484l3.141,0.403c-0.494,1.863-1.411,3.327-2.776,4.358
		c-1.319,1.027-3.046,1.548-5.16,1.548c-2.62,0-4.723-0.825-6.255-2.475c-1.551-1.654-2.331-3.966-2.331-6.936
		c0-3.099,0.78-5.487,2.365-7.183c1.555-1.707,3.57-2.555,6.05-2.555c2.422,0,4.388,0.833,5.909,2.49
		c1.563,1.677,2.316,4.015,2.316,7.031c0,0.202,0,0.475-0.034,0.84h-13.434c0.114,2.027,0.665,3.567,1.673,4.65
		c1.008,1.061,2.278,1.605,3.772,1.605c1.129,0,2.084-0.3,2.882-0.901C314.646,398.765,315.277,397.807,315.741,396.484
		 M305.703,391.472h10.069c-0.118-1.551-0.494-2.719-1.16-3.483c-0.977-1.217-2.217-1.806-3.779-1.806
		c-1.407,0-2.59,0.46-3.544,1.434C306.334,388.575,305.794,389.852,305.703,391.472"/>
	<path style="fill:#231F20;" d="M331.333,393.21c0-3.388,0.928-5.905,2.768-7.544c1.559-1.354,3.434-2.023,5.689-2.023
		c2.475,0,4.494,0.817,6.072,2.475c1.563,1.646,2.365,3.92,2.365,6.841c0,2.354-0.342,4.202-1.034,5.57
		c-0.722,1.342-1.73,2.388-3.057,3.148c-1.323,0.757-2.768,1.114-4.346,1.114c-2.548,0-4.563-0.818-6.118-2.468
		C332.086,398.678,331.333,396.316,331.333,393.21 M334.481,393.225c0,2.361,0.513,4.099,1.498,5.282
		c1.011,1.156,2.274,1.753,3.81,1.753c1.49,0,2.764-0.597,3.768-1.761c1.011-1.175,1.506-2.977,1.506-5.354
		c0-2.274-0.494-3.996-1.506-5.156c-1.004-1.175-2.278-1.761-3.768-1.761c-1.536,0-2.799,0.586-3.81,1.753
		C334.994,389.141,334.481,390.887,334.481,393.225"/>
	<path style="fill:#231F20;" d="M352.555,402.397v-15.951h-2.707v-2.415h2.707v-1.939c0-1.232,0.084-2.145,0.315-2.734
		c0.293-0.802,0.81-1.453,1.555-1.958c0.753-0.498,1.787-0.749,3.114-0.749c0.871,0,1.817,0.118,2.886,0.331l-0.494,2.703
		c-0.631-0.11-1.209-0.156-1.783-0.156c-0.924,0-1.589,0.194-1.988,0.605c-0.376,0.392-0.578,1.133-0.578,2.224v1.673h3.544v2.415
		h-3.544v15.951H352.555z"/>
	<path style="fill:#231F20;" d="M371.181,402.397v-18.365h2.707v2.605c0.582-0.905,1.297-1.624,2.255-2.175
		c0.947-0.555,2.046-0.817,3.224-0.817c1.388,0,2.449,0.285,3.319,0.84c0.859,0.57,1.472,1.365,1.84,2.369
		c1.418-2.137,3.289-3.209,5.593-3.209c1.814,0,3.202,0.498,4.183,1.509c0.977,1.008,1.437,2.563,1.437,4.646v12.597h-3.05v-11.548
		c0-1.24-0.091-2.125-0.293-2.688c-0.201-0.536-0.544-0.974-1.091-1.323c-0.525-0.327-1.126-0.498-1.852-0.498
		c-1.262,0-2.361,0.434-3.194,1.285c-0.84,0.863-1.27,2.228-1.27,4.122v10.65h-3.057v-11.913c0-1.373-0.259-2.422-0.749-3.103
		c-0.494-0.692-1.323-1.042-2.449-1.042c-0.897,0-1.673,0.24-2.426,0.692c-0.719,0.452-1.263,1.137-1.578,2.027
		c-0.35,0.878-0.494,2.164-0.494,3.825v9.513H371.181z"/>
	<path style="fill:#231F20;" d="M399.09,393.21c0-3.388,0.92-5.905,2.798-7.544c1.555-1.354,3.426-2.023,5.677-2.023
		c2.479,0,4.498,0.817,6.053,2.475c1.589,1.646,2.365,3.92,2.365,6.841c0,2.354-0.346,4.202-1.042,5.57
		c-0.685,1.342-1.7,2.388-3.027,3.148c-1.323,0.757-2.791,1.114-4.35,1.114c-2.536,0-4.582-0.818-6.137-2.468
		C399.873,398.678,399.09,396.316,399.09,393.21 M402.258,393.225c0,2.361,0.494,4.099,1.506,5.282
		c1.007,1.156,2.278,1.753,3.802,1.753c1.502,0,2.745-0.597,3.749-1.761c1.011-1.175,1.529-2.977,1.529-5.354
		c0-2.274-0.517-3.996-1.529-5.156c-1.004-1.175-2.281-1.761-3.749-1.761c-1.525,0-2.795,0.586-3.802,1.753
		C402.752,389.141,402.258,390.887,402.258,393.225"/>
	<path style="fill:#231F20;" d="M419.587,402.397v-18.365h2.768v2.605c1.331-1.989,3.232-2.992,5.738-2.992
		c1.068,0,2.08,0.194,2.996,0.589c0.897,0.399,1.582,0.928,2.027,1.567c0.452,0.647,0.776,1.411,0.973,2.308
		c0.087,0.567,0.152,1.567,0.152,3.015v11.274h-3.03v-11.148c0-1.27-0.122-2.221-0.376-2.837c-0.232-0.631-0.661-1.129-1.27-1.506
		c-0.605-0.373-1.297-0.566-2.133-0.566c-1.297,0-2.422,0.418-3.377,1.278c-0.943,0.825-1.411,2.415-1.411,4.768v10.012H419.587z"/>
	<path style="fill:#231F20;" d="M451.333,396.484l3.141,0.403c-0.487,1.863-1.411,3.327-2.734,4.358
		c-1.388,1.027-3.092,1.548-5.19,1.548c-2.631,0-4.704-0.825-6.255-2.475c-1.559-1.654-2.342-3.966-2.342-6.936
		c0-3.099,0.81-5.487,2.342-7.183c1.578-1.707,3.597-2.555,6.107-2.555c2.395,0,4.354,0.833,5.882,2.49
		c1.528,1.677,2.304,4.015,2.304,7.031v0.84h-13.46c0.11,2.027,0.662,3.567,1.669,4.65c1.008,1.061,2.282,1.605,3.784,1.605
		c1.122,0,2.068-0.3,2.878-0.901C450.237,398.765,450.869,397.807,451.333,396.484 M441.271,391.472h10.118
		c-0.175-1.551-0.544-2.719-1.186-3.483c-0.977-1.217-2.213-1.806-3.772-1.806c-1.418,0-2.597,0.46-3.54,1.434
		C441.906,388.575,441.385,389.852,441.271,391.472"/>
	<path style="fill:#231F20;" d="M458.193,409.459l-0.399-2.89c0.684,0.179,1.266,0.281,1.783,0.281c0.696,0,1.243-0.11,1.643-0.338
		c0.43-0.232,0.78-0.574,1.042-0.981c0.167-0.312,0.491-1.076,0.951-2.327c0.057-0.167,0.141-0.414,0.259-0.749l-6.916-18.426h3.259
		l3.833,10.628c0.517,1.346,0.947,2.757,1.357,4.243c0.338-1.411,0.749-2.802,1.24-4.144l3.829-10.727h3.088l-6.829,18.689
		c-0.761,2.004-1.327,3.392-1.738,4.156c-0.544,1.027-1.179,1.776-1.871,2.243c-0.722,0.475-1.555,0.722-2.544,0.722
		C459.577,409.84,458.915,409.703,458.193,409.459"/>
	<path style="fill:#ED1D24;" d="M145.893,308.844v-7.278H124.93c0,0-18.624,0.593-19.05,24.795c0,0,0,22.54,16.343,23.582h23.67
		v-6.981h-17.499c0,0-13.985,0.681-13.521-18.559c0,0,1.065-15.56,14.122-15.56H145.893z"/>
	<rect x="152.581" y="282.924" style="fill:#ED1D24;" width="8.361" height="9.038"/>
	<rect x="152.584" y="301.647" style="fill:#ED1D24;" width="8.361" height="48.45"/>
	<path style="fill:#ED1D24;" d="M176.052,308.629h-9.632v-7.361h9.632v-18.343h8.221v18.597h14.586v7.107h-14.274v28.244
		c0,0-0.46,6.171,4.962,6.304h9.16v7.224h-12.449c0,0-9.89,0.297-10.206-10.825V308.629z"/>
	<path style="fill:#ED1D24;" d="M212.092,301.522h-8.365v35.054c0,0,0.232,14.198,17.826,14.198h15.073c0,0,2.51,7.666-6.057,7.666
		h-26.609v7.202h28.86c0,0,12.632,1.129,12.833-13.286v-50.834h-8.107v41.811H221.78c0,0-9.027,0-9.688-8.111V301.522z"/>
	<path style="fill:#ED1D24;" d="M303.34,301.082h-16.662v-17.913h-8.479v67.819h26.727c19.924-2.361,18.484-25.442,18.484-25.442
		C322.485,301.648,303.34,301.082,303.34,301.082 M313.952,323.965c0.894,18.932-14.221,18.932-14.221,18.932H286.91V308.63h12.822
		C314.614,310.211,313.952,323.965,313.952,323.965"/>
	<path style="fill:#ED1D24;" d="M362.154,301.88H332.4v6.966h26.381c10.613,0.68,9.457,12.529,9.457,12.529h-21.848
		c-16.67,0-16.902,13.403-16.902,13.403c0.692,16.434,15.111,15.552,15.111,15.552h31.313v-36.526
		C375.451,302.332,362.154,301.88,362.154,301.88 M367.865,343.333h-21.761c0,0-7.213,0.536-7.529-7.738
		c0,0-0.609-7.502,9.167-7.065h20.122V343.333z"/>
	<path style="fill:#ED1D24;" d="M389.656,309.201v41.127h-7.894V302.33h28.86c0,0,14.187,0.669,13.749,13.502v34.495h-7.894v-31.1
		c0,0,0.776-10.384-11.707-10.027H389.656z"/>
	<path style="fill:#ED1D24;" d="M439.223,329.52v21.632h-8.852v-67.165h8.734v36.667h1.787l24.016-18.187H475l-23.062,19.567H462
		c0,0,10.928,0.008,11.506,11.088v17.43h-7.209v-13.365c0,0,0.893-7.704-6.92-7.666H439.223z"/>
	<path style="fill:#231F20;" d="M25,160.313c0,0,60.15,3.765,130.297-70.15c0,0,32.609,106.482,162.86,174.131
		c0,0-212.976-83.938-290.644,114.011C27.513,378.305,77.621,229.224,25,160.313"/>
	<path style="fill:#ED1D24;" d="M207.622,177.372c-39.933-46.823-52.325-87.212-52.325-87.212
		c-20.559,21.674-40.256,36.636-57.838,46.998c9.225,11.882,22.689,29.514,37.362,49.602
		C155.758,181.174,180.002,177.505,207.622,177.372"/>
	<path style="fill:#DFE0E4;" d="M97.459,137.157C55.073,162.154,25,160.314,25,160.314c14.308,18.723,21.02,43.37,23.214,69.348
		c16.088-13.054,44.743-31.735,86.611-42.902C120.148,166.672,106.683,149.04,97.459,137.157"/>
	<path style="fill:#ED1D24;" d="M48.214,229.662c5.878,69.58-20.7,148.643-20.7,148.643c39.298-88.778,94.797-124.152,146.78-134.89
		c-12.628-19.198-26.499-38.857-39.469-56.656C92.96,197.928,64.302,216.605,48.214,229.662"/>
	<g>
		<defs>
			<path id="SVGID_1_" d="M318.152,264.293L318.152,264.293 M318.152,264.293c-0.012-0.008-0.209-0.11-0.578-0.301
				C317.768,264.091,317.962,264.194,318.152,264.293 M134.823,186.762c12.974,17.799,26.841,37.457,39.469,56.656
				c71.595-14.795,136.521,17.107,143.282,20.575c-49.743-25.928-85.166-57.511-109.954-86.618
				C180.003,177.507,155.759,181.176,134.823,186.762"/>
		</defs>
		<clipPath id="SVGID_00000024002644454783150980000003647338305960082612_">
			<use xlink:href="#SVGID_1_"  style="overflow:visible;"/>
		</clipPath>
		
			<linearGradient id="SVGID_00000104670648960811278340000016496661164464719756_" gradientUnits="userSpaceOnUse" x1="-60.7815" y1="643.2192" x2="-56.9792" y2="643.2192" gradientTransform="matrix(48.2148 0 0 -48.2148 3065.3955 31233.5469)">
			<stop  offset="0" style="stop-color:#FFFFFF"/>
			<stop  offset="0.0471" style="stop-color:#F9F9F9"/>
			<stop  offset="0.7023" style="stop-color:#A2A4A6"/>
			<stop  offset="1" style="stop-color:#808285"/>
		</linearGradient>
		
			<rect x="134.823" y="177.374" style="clip-path:url(#SVGID_00000024002644454783150980000003647338305960082612_);fill:url(#SVGID_00000104670648960811278340000016496661164464719756_);" width="183.329" height="86.919"/>
	</g>
</g>
</svg>
