<?xml version="1.0" encoding="UTF-8" standalone="no"?>
<!-- Generator: Adobe Illustrator 21.0.0, SVG Export Plug-In . SVG Version: 6.00 Build 0)  -->

<svg
   xmlns:dc="http://purl.org/dc/elements/1.1/"
   xmlns:cc="http://creativecommons.org/ns#"
   xmlns:rdf="http://www.w3.org/1999/02/22-rdf-syntax-ns#"
   xmlns:svg="http://www.w3.org/2000/svg"
   xmlns="http://www.w3.org/2000/svg"
   xmlns:sodipodi="http://sodipodi.sourceforge.net/DTD/sodipodi-0.dtd"
   xmlns:inkscape="http://www.inkscape.org/namespaces/inkscape"
   version="1.1"
   id="Layer_1"
   x="0px"
   y="0px"
   viewBox="0 0 94.1 100"
   xml:space="preserve"
   sodipodi:docname="EBL Registered Corporate Logo.svg"
   width="94.099998"
   height="100"
   inkscape:version="0.92.4 (5da689c313, 2019-01-14)"><metadata
   id="metadata1122"><rdf:RDF><cc:Work
       rdf:about=""><dc:format>image/svg+xml</dc:format><dc:type
         rdf:resource="http://purl.org/dc/dcmitype/StillImage" /></cc:Work></rdf:RDF></metadata><defs
   id="defs1120" /><sodipodi:namedview
   pagecolor="#ffffff"
   bordercolor="#666666"
   borderopacity="1"
   objecttolerance="10"
   gridtolerance="10"
   guidetolerance="10"
   inkscape:pageopacity="0"
   inkscape:pageshadow="2"
   inkscape:window-width="1366"
   inkscape:window-height="705"
   id="namedview1118"
   showgrid="false"
   inkscape:zoom="2.36"
   inkscape:cx="47.049999"
   inkscape:cy="50"
   inkscape:window-x="-8"
   inkscape:window-y="-8"
   inkscape:window-maximized="1"
   inkscape:current-layer="Layer_1" />
<style
   type="text/css"
   id="style1021">
	.st0{fill:#FFFFFF;}
	.st1{fill-rule:evenodd;clip-rule:evenodd;}
	.st2{fill:#005BAA;}
	.st3{fill-rule:evenodd;clip-rule:evenodd;fill:#005BAA;}
	.st4{fill:#FAA61A;}
	.st5{fill:#00A651;}
</style>
<g
   id="g1115">
	<path
   class="st0"
   d="m 94.1,86.2 c 0,7.6 -6.2,13.8 -13.8,13.8 H 13.8 C 6.2,100 0,93.8 0,86.2 V 13.8 C 0,6.2 6.2,0 13.8,0 h 66.5 c 7.6,0 13.8,6.2 13.8,13.8 z"
   id="path1023"
   inkscape:connector-curvature="0"
   style="fill:#ffffff" />
	<g
   id="g1113">
		<g
   id="g1045">
			<path
   d="m 14.9,88.6 c 0.2,-0.2 0.3,-0.4 0.4,-0.5 0.1,-0.1 0.1,-0.3 0.1,-0.4 0,-0.2 -0.1,-0.3 -0.2,-0.5 C 15,87 14.7,86.9 14.3,86.8 14,86.7 13.7,86.7 13.4,86.7 c -0.4,0 -0.9,0 -1.4,-0.1 -0.1,0 -0.3,-0.1 -0.9,-0.2 -0.5,-0.1 -0.9,-0.2 -1,-0.4 -0.2,-0.1 -0.3,-0.3 -0.4,-0.6 0,-0.1 0,-0.1 0,-0.2 0,-0.4 0.4,-0.9 1.1,-1.3 0.6,-0.4 1.1,-0.6 1.7,-0.8 0.4,-0.1 0.7,-0.2 0.9,-0.2 0.4,-0.1 0.8,-0.1 1.1,-0.1 0.4,0 0.7,0.1 0.9,0.2 0.2,0.1 0.4,0.3 0.5,0.6 -0.2,0.1 -0.5,0.2 -0.6,0.3 -0.2,0 -0.4,0.1 -0.7,0.1 l 0.3,-0.4 c -0.3,-0.1 -0.7,-0.1 -1,-0.1 -0.4,0 -0.8,0.1 -1.1,0.2 -0.4,0.1 -0.8,0.3 -1.2,0.5 -0.3,0.2 -0.6,0.3 -0.8,0.5 -0.3,0.3 -0.5,0.5 -0.5,0.7 0,0.1 0,0.2 0.1,0.4 0.1,0.1 0.3,0.2 0.5,0.3 0.4,0.2 1,0.3 1.7,0.4 0.7,0 1.3,0.1 1.9,0.1 0.4,0.1 0.7,0.1 0.9,0.2 0.3,0.1 0.5,0.3 0.6,0.6 0,0.1 0.1,0.2 0.1,0.4 0,0.5 -0.2,0.9 -0.7,1.4 -0.4,0.4 -0.9,0.8 -1.4,1 -0.3,0.1 -0.6,0.3 -0.9,0.4 -0.4,0.2 -0.7,0.3 -0.9,0.3 -0.1,0 -0.2,0 -0.3,0 -0.1,0 -0.2,0 -0.3,0 -0.1,0 -0.2,0 -0.3,0 0,0 -0.1,0 -0.2,0 -0.2,-0.1 -0.3,-0.1 -0.4,-0.2 -0.1,-0.1 -0.1,-0.2 -0.1,-0.4 0.2,0.1 0.3,0.1 0.5,0.2 0.2,0 0.4,0.1 0.5,0.1 0.6,0 1.2,-0.2 1.8,-0.6 0.5,-0.5 1,-0.9 1.5,-1.4 z"
   id="path1025"
   inkscape:connector-curvature="0" />
			<path
   class="st1"
   d="m 18.3,86.2 c -0.2,0 -0.4,0 -0.7,0.1 -0.3,0.1 -0.5,0.1 -0.6,0.1 -0.1,0 -0.1,0 -0.2,0 0.2,-0.4 0.4,-0.7 0.8,-0.7 0.2,0 0.5,0.2 0.7,0.5 z m -0.1,2.6 c 0,0.1 0.1,0.3 0.2,0.7 0.1,0.3 0.2,0.6 0.2,0.8 -0.4,-0.1 -0.7,-0.3 -0.9,-0.7 -0.2,-0.4 -0.3,-0.9 -0.3,-1.4 0,-0.4 0.1,-0.7 0.2,-0.9 0.2,0.2 0.4,0.5 0.5,0.9 0,0.3 0.1,0.5 0.1,0.6 z"
   id="path1027"
   inkscape:connector-curvature="0"
   style="clip-rule:evenodd;fill-rule:evenodd" />
			<path
   d="m 20.2,90.4 c -0.2,-0.1 -0.4,-0.3 -0.5,-0.6 0,-0.1 -0.1,-0.4 -0.1,-0.8 -0.1,-0.6 -0.3,-1.2 -0.4,-1.8 0,-0.1 0,-0.2 0,-0.4 0,-0.1 0,-0.2 0,-0.2 0,-0.2 0.1,-0.3 0.2,-0.3 0,0 0.1,0 0.2,0.1 0.1,0 0.2,0.2 0.3,0.5 0.1,0.2 0.1,0.4 0.1,0.7 0,0.4 0.1,0.9 0.1,1.3 0.1,0.5 0.3,0.9 0.6,1.1 0.2,-0.3 0.4,-0.7 0.6,-1 0.2,-0.4 0.3,-0.7 0.5,-1 0.1,-0.2 0.2,-0.4 0.3,-0.5 0.1,-0.1 0.2,-0.2 0.3,-0.2 0.2,0 0.4,0.1 0.5,0.4 0.2,0.2 0.3,0.5 0.4,0.8 0.1,0.2 0.2,0.4 0.3,0.5 0.1,0.1 0.2,0.2 0.3,0.2 0.2,0 0.5,-0.2 0.9,-0.8 0.4,-0.5 0.8,-0.8 1.1,-0.8 0.2,0 0.4,0.1 0.6,0.3 0.1,0.1 0.3,0.3 0.4,0.6 0.2,0.3 0.3,0.7 0.5,1 0.1,0.1 0.1,0.2 0.2,0.2 0,0 0.1,0.1 0.2,0.1 0.1,0 0.2,0 0.3,0 0.1,0 0.1,0.1 0.2,0.3 -0.2,0.1 -0.3,0.1 -0.5,0.1 -0.3,0 -0.6,-0.2 -0.8,-0.5 -0.1,-0.1 -0.2,-0.5 -0.6,-1.1 -0.1,-0.3 -0.3,-0.4 -0.5,-0.4 -0.1,0 -0.3,0.1 -0.5,0.3 -0.1,0.1 -0.2,0.3 -0.4,0.6 -0.2,0.3 -0.4,0.5 -0.6,0.7 -0.2,0.1 -0.4,0.2 -0.5,0.1 -0.4,0 -0.7,-0.3 -1,-0.8 -0.4,-0.7 -0.6,-1 -0.7,-1.1 -0.2,0.6 -0.4,1.1 -0.6,1.5 -0.3,0.7 -0.7,1.1 -1,1.1 -0.2,-0.2 -0.3,-0.2 -0.4,-0.2 z"
   id="path1029"
   inkscape:connector-curvature="0" />
			<path
   d="m 32.7,87.8 c 0.2,0.3 0.3,0.5 0.3,0.8 0,0.4 -0.3,0.8 -0.9,1.2 -0.6,0.3 -1.1,0.4 -1.7,0.4 -0.2,0 -0.3,0 -0.4,0 0.6,-0.2 1,-0.3 1.2,-0.4 0.5,-0.2 0.8,-0.5 1,-0.9 0.1,-0.1 0.1,-0.3 0.1,-0.3 0,-0.2 -0.1,-0.4 -0.4,-0.6 -0.2,-0.2 -0.5,-0.3 -0.8,-0.3 -0.2,0 -0.4,-0.1 -0.7,-0.1 -0.4,0 -0.7,0.1 -0.9,0.2 -0.3,0.1 -0.4,0.4 -0.4,0.7 0,0.4 0.2,1.1 0.4,2 0.3,0.9 0.5,1.6 0.5,2 0,0.2 0,0.3 0,0.4 0,0.1 0,0.2 -0.1,0.3 -0.3,-0.1 -0.5,-0.5 -0.8,-1.1 -0.1,-0.3 -0.3,-0.8 -0.4,-1.4 -0.1,-0.4 -0.2,-0.9 -0.3,-1.6 -0.1,-0.7 -0.1,-1.2 -0.2,-1.4 0.6,-0.2 0.9,-0.3 1.2,-0.3 0.5,-0.1 0.9,-0.2 1.2,-0.2 0.4,0 0.8,0.1 1.1,0.2 0.5,-0.2 0.8,0.1 1,0.4 z"
   id="path1031"
   inkscape:connector-curvature="0" />
			<path
   d="m 34.2,87.6 c 0,-0.2 -0.1,-0.5 -0.1,-1 0,-0.6 -0.1,-1.2 -0.1,-1.5 0,-0.1 0,-0.4 -0.1,-0.8 -0.1,-0.4 -0.1,-0.7 -0.1,-0.8 0,-0.2 0,-0.3 0.1,-0.4 0,-0.1 0.1,-0.2 0.2,-0.2 0.3,1.2 0.4,2.4 0.4,3.6 0,0.5 0.1,0.9 0.2,1.4 0.1,0.4 0.2,0.8 0.3,1.4 0.1,0.2 0.2,0.7 0.4,1.4 -0.4,-0.1 -0.7,-0.5 -0.9,-1.3 -0.1,-0.6 -0.2,-1.2 -0.3,-1.8 z"
   id="path1033"
   inkscape:connector-curvature="0" />
			<path
   class="st1"
   d="m 38.7,85.4 c 0.2,0.1 0.4,0.2 0.5,0.4 0.1,0.2 0.2,0.4 0.2,0.6 v 0.1 c -0.1,0.6 -0.6,1.1 -1.4,1.6 -0.4,0.2 -0.8,0.5 -1.2,0.7 0.3,0.4 0.6,0.7 1.1,0.9 0.4,0.2 0.9,0.2 1.4,0.2 0.2,0 0.4,0 0.6,0 0.2,0 0.4,0 0.7,-0.1 0.3,0 0.5,-0.1 0.8,-0.2 0.3,-0.1 0.5,-0.2 0.8,-0.3 0.1,0 0.2,-0.1 0.4,-0.2 0.4,-0.2 0.6,-0.3 0.6,-0.3 0.1,0 0.2,0 0.2,0 0,0 0,0 0,-0.1 0.1,0 0.2,0 0.2,0 0,0 0,0 0,0 -0.5,0.3 -0.9,0.6 -1.4,0.9 -0.7,0.3 -1.1,0.4 -1.3,0.5 -0.5,0.2 -1,0.2 -1.3,0.2 -0.8,0 -1.6,-0.2 -2.3,-0.5 -0.9,-0.4 -1.3,-1 -1.3,-1.7 0,-0.1 0,-0.3 0,-0.4 0.1,-0.6 0.4,-1.2 0.8,-1.6 0.4,-0.4 0.9,-0.7 1.6,-0.9 0,0 0,0 0.1,0 0,0.1 0.1,0.1 0.2,0.2 z m -0.6,2 c 0.2,-0.1 0.4,-0.3 0.5,-0.5 0.2,-0.2 0.3,-0.5 0.3,-0.7 0,-0.1 -0.1,-0.3 -0.2,-0.4 -0.1,-0.1 -0.2,-0.1 -0.3,-0.1 -0.1,0 -0.3,0 -0.5,0.2 -0.1,0 -0.2,0.1 -0.5,0.3 -0.3,0.2 -0.5,0.4 -0.6,0.7 -0.1,0.3 -0.2,0.6 -0.2,0.9 0,0.1 0,0.2 0,0.4 0.2,0 0.5,-0.1 0.8,-0.3 0.2,-0.2 0.4,-0.4 0.7,-0.5 z"
   id="path1035"
   inkscape:connector-curvature="0"
   style="clip-rule:evenodd;fill-rule:evenodd" />
			<path
   d="m 56.4,80.9 c 0.2,0.3 0.3,0.8 0.4,1.3 0,0.2 0.2,0.9 0.4,2.3 0,0.3 0.1,0.7 0.2,1.1 0.3,1.1 0.4,1.7 0.4,1.9 0,0.1 0.1,0.4 0.2,0.7 0.2,0.7 0.4,1.1 0.4,1.3 -0.6,-0.1 -1,-0.8 -1.3,-2 0,0 -0.1,-0.5 -0.3,-1.4 -0.1,-0.7 -0.2,-1.4 -0.3,-2 -0.1,-0.8 -0.3,-1.4 -0.5,-2 -0.4,0.2 -0.7,0.7 -0.9,1.4 -0.2,0.5 -0.4,1.1 -0.6,1.7 -0.2,0.5 -0.4,0.9 -0.7,1.3 -0.4,0.6 -0.7,0.9 -1,1.1 -0.1,0 -0.2,0 -0.3,0.1 -0.1,0 -0.2,0 -0.2,0 -0.5,0 -1.1,-0.4 -1.6,-1.3 -0.3,-0.4 -0.5,-0.7 -0.7,-1.1 -0.1,0.1 -0.1,0.3 -0.1,0.5 0,0.2 0,0.3 0,0.5 0,0.4 0.1,1 0.3,1.8 0.2,0.8 0.3,1.4 0.3,1.8 0,0.2 0,0.4 -0.1,0.6 -0.3,-0.1 -0.5,-0.3 -0.6,-0.6 -0.1,-0.2 -0.1,-0.6 -0.1,-1 0,-0.2 0,-0.5 -0.1,-0.9 -0.1,-0.4 -0.1,-0.7 -0.1,-0.8 0,-0.2 0,-0.9 -0.1,-1.9 0,-0.5 -0.1,-0.9 -0.1,-1.1 0,-0.2 0,-0.4 -0.1,-0.6 -0.1,-0.5 -0.2,-0.8 -0.2,-0.9 0,-0.1 0,-0.3 0.1,-0.5 0.2,0.1 0.4,0.2 0.4,0.3 0.1,0.1 0.1,0.3 0.2,0.6 0,0.3 0.1,0.6 0.2,0.8 0.1,0.3 0.2,0.6 0.3,0.9 0.3,0.6 0.6,1.1 0.9,1.5 0.5,0.6 0.9,0.9 1.3,0.9 0.2,0 0.3,-0.1 0.5,-0.2 0.2,-0.1 0.3,-0.3 0.5,-0.6 0.4,-0.7 0.7,-1.1 0.8,-1.3 0.3,-0.5 0.5,-1 0.6,-1.4 0.1,-0.4 0.3,-0.8 0.6,-1.2 0.2,-0.4 0.5,-0.8 0.8,-1 h 0.2 z"
   id="path1037"
   inkscape:connector-curvature="0" />
			<path
   d="m 61.8,85.4 c 0.2,0.1 0.3,0.2 0.4,0.4 0.1,0.1 0.1,0.3 0.1,0.5 0,0.2 0,0.4 -0.2,0.6 0,-0.4 -0.1,-0.7 -0.2,-0.8 -0.1,-0.2 -0.3,-0.3 -0.5,-0.3 -0.4,0 -0.8,0.2 -1.2,0.6 -0.4,0.4 -0.7,0.8 -0.8,1.1 -0.1,0.3 -0.1,0.5 -0.2,0.7 -0.1,0.3 -0.2,0.6 -0.2,0.8 0,0.3 0.1,0.5 0.2,0.6 0.1,0.2 0.3,0.2 0.6,0.3 0,0 0.1,0 0.2,0 0.5,0 0.9,-0.2 1.3,-0.6 0.4,-0.4 0.7,-0.7 1,-1.1 0.4,-0.4 0.8,-0.7 1.2,-0.8 0,0.1 0.1,0.3 0.2,0.7 0.1,0.6 0.3,0.9 0.4,1.1 0.1,0.1 0.3,0.2 0.4,0.3 0.2,0.1 0.3,0.1 0.5,0.1 0.1,0 0.3,0 0.5,0 0.4,-0.1 0.7,-0.1 0.8,-0.1 h 0.1 c -0.3,0.1 -0.6,0.3 -0.9,0.4 -0.3,0.1 -0.6,0.2 -0.9,0.2 -0.1,0 -0.2,0 -0.4,0 -0.3,-0.1 -0.6,-0.2 -0.8,-0.4 0,-0.1 -0.3,-0.5 -0.6,-1.3 -0.3,0.3 -0.6,0.6 -0.9,0.9 -0.3,0.3 -0.7,0.6 -0.9,0.8 -0.2,0.1 -0.4,0.2 -0.7,0.3 -0.2,0.1 -0.5,0.1 -0.7,0.1 0,0 -0.1,0 -0.1,0 0,0 -0.1,0 -0.1,0 -0.3,0 -0.6,-0.2 -0.7,-0.4 -0.1,-0.2 -0.1,-0.5 -0.1,-0.9 0,-0.8 0.3,-1.6 0.7,-2.4 0.5,-0.7 1.1,-1.3 1.9,-1.6 0.1,0 0.1,0 0.2,0 0.3,0.1 0.4,0.1 0.4,0.2 z"
   id="path1039"
   inkscape:connector-curvature="0" />
			<path
   d="m 69,83.3 v -0.9 c 0,-0.1 0,-0.2 0.1,-0.2 0,-0.1 0.1,-0.1 0.2,-0.1 0.1,0 0.2,0 0.3,0 0,0.7 0,1.2 0.1,1.7 0,0.4 0.1,0.9 0.2,1.5 0.6,-0.1 1.1,-0.2 1.6,-0.4 0.5,-0.2 0.9,-0.5 1.3,-0.8 0,0.4 -0.1,0.7 -0.5,0.9 -0.2,0.1 -0.6,0.3 -1,0.4 -0.4,0.1 -0.7,0.2 -0.8,0.4 -0.1,0.2 -0.2,0.4 -0.2,0.8 0,0.5 0.1,1 0.3,1.5 0.1,0.4 0.3,0.9 0.5,1.4 0.2,0.4 0.4,0.8 0.7,1.3 -0.6,-0.2 -1.1,-0.7 -1.5,-1.6 -0.1,-0.4 -0.3,-1.2 -0.5,-2.3 0,-0.4 -0.2,-0.6 -0.3,-0.8 -0.1,-0.1 -0.4,-0.2 -0.7,-0.2 -0.2,0 -0.4,0 -0.7,0.1 -0.7,0.1 -1.1,0.2 -1.2,0.2 -0.2,0 -0.4,0 -0.5,-0.1 -0.2,-0.1 -0.3,-0.2 -0.4,-0.3 0.2,-0.1 0.3,-0.1 0.5,-0.2 0.2,0 0.4,0 0.7,0 h 0.3 c 0.3,0 0.6,0 0.9,-0.1 0.3,-0.1 0.7,-0.1 1,-0.2 C 69.3,84.9 69.2,84.6 69.2,84.4 69,83.9 69,83.6 69,83.3 Z"
   id="path1041"
   inkscape:connector-curvature="0" />
			<path
   d="m 73.5,86 c 0.1,1.1 0.2,1.7 0.2,1.9 0.2,0.8 0.5,1.3 0.9,1.6 0.2,-0.6 0.3,-1 0.4,-1 0.2,-0.4 0.4,-0.6 0.7,-0.7 0.2,-0.1 0.4,-0.1 0.5,-0.1 0.2,0 0.5,0.1 0.7,0.3 0.1,0.1 0.2,0.2 0.5,0.5 0.5,0.5 0.9,0.9 1.3,1.1 0.3,0.2 0.6,0.3 1,0.3 0,0 0,0 0,0 0.1,0.1 0.1,0.1 0.1,0.2 0,0.1 -0.1,0.1 -0.1,0.2 -0.1,0 -0.2,0 -0.3,0 -0.1,0 -0.2,0 -0.4,0 -0.1,0 -0.2,-0.1 -0.2,-0.1 -0.3,-0.1 -0.5,-0.2 -0.8,-0.4 -0.2,-0.1 -0.5,-0.5 -1,-1.1 -0.1,-0.1 -0.3,-0.3 -0.4,-0.3 -0.1,-0.1 -0.3,-0.1 -0.4,-0.1 -0.2,0 -0.5,0.2 -0.7,0.5 -0.1,0.2 -0.3,0.6 -0.4,1 -0.1,0.2 -0.1,0.3 -0.2,0.4 -0.1,0.1 -0.2,0.1 -0.3,0.1 -0.2,0 -0.3,-0.1 -0.5,-0.2 C 74,89.9 73.8,89.8 73.7,89.6 73.4,89 73.2,88.4 73.1,87.7 73,87 72.9,86.4 72.9,85.7 c 0,-0.2 0,-0.4 -0.1,-0.7 -0.1,-0.6 -0.1,-1 -0.1,-1.1 0,-0.3 0.1,-0.6 0.2,-0.9 0.2,0.3 0.3,0.8 0.4,1.4 0.2,0.5 0.2,1.1 0.2,1.6 z"
   id="path1043"
   inkscape:connector-curvature="0" />
		</g>
		<rect
   x="9.6000004"
   y="77.800003"
   width="75"
   height="0.2"
   id="rect1047" />
		<g
   id="g1057">
			<g
   id="g1051">
				<path
   d="m 83.1,85.1 -0.3,0.1 -1,-1.4 h -0.4 v 1.4 H 81.1 V 82 h 0.8 c 0.3,0 0.6,0.1 0.7,0.2 0.2,0.1 0.3,0.4 0.3,0.6 0,0.1 0,0.2 -0.1,0.3 0,0.1 -0.1,0.2 -0.2,0.3 -0.1,0.1 -0.1,0.1 -0.2,0.2 -0.1,0 -0.2,0.1 -0.3,0.1 z m -0.7,-2.7 c -0.1,-0.1 -0.3,-0.2 -0.5,-0.2 h -0.5 v 1.2 h 0.4 c 0.2,0 0.4,-0.1 0.6,-0.2 0.1,-0.1 0.2,-0.3 0.2,-0.5 0,-0.1 -0.1,-0.2 -0.2,-0.3 z"
   id="path1049"
   inkscape:connector-curvature="0" />
			</g>
			<g
   id="g1055">
				<path
   d="m 81.9,86.3 c -1.5,0 -2.7,-1.2 -2.7,-2.7 0,-1.5 1.2,-2.7 2.7,-2.7 1.5,0 2.7,1.2 2.7,2.7 0,1.5 -1.2,2.7 -2.7,2.7 z m 0,-5.1 c -1.3,0 -2.4,1.1 -2.4,2.4 0,1.3 1.1,2.4 2.4,2.4 1.3,0 2.4,-1.1 2.4,-2.4 0,-1.3 -1.1,-2.4 -2.4,-2.4 z"
   id="path1053"
   inkscape:connector-curvature="0" />
			</g>
		</g>
		<g
   id="g1111">
			<g
   id="g1089">
				<path
   class="st2"
   d="m 14.9,68 0.1,2.2 h -0.4 c -0.1,-0.8 -0.3,-1.3 -0.6,-1.5 -0.3,-0.2 -0.8,-0.3 -1.4,-0.3 -0.5,0 -0.8,0 -0.9,0.1 -0.1,0 -0.2,0.1 -0.2,0.3 v 2.1 c 0.1,0 0.1,0 0.1,0 0,0 0.1,0 0.1,0 0.5,0 0.8,-0.1 1,-0.4 0.1,-0.2 0.2,-0.4 0.2,-0.8 h 0.4 v 2.9 H 13 v -0.2 c 0,-0.5 -0.2,-0.8 -0.5,-1 -0.2,-0.1 -0.4,-0.1 -0.7,-0.1 h -0.3 v 2.3 0.2 c 0,0.1 0,0.2 0.1,0.2 0.1,0 0.2,0 0.3,0 0,0 0.1,0 0.3,0 0.2,0 0.3,0 0.4,0 0.7,0 1.2,-0.1 1.5,-0.3 0.3,-0.2 0.5,-0.7 0.7,-1.5 v -0.1 h 0.4 L 15,74.4 H 9.6 V 74 h 0.5 c 0.2,0 0.3,-0.1 0.4,-0.1 0,-0.1 0.1,-0.2 0.1,-0.4 V 69 c 0,-0.3 0,-0.4 -0.1,-0.5 -0.1,0 -0.4,-0.1 -0.8,-0.1 V 68 Z"
   id="path1059"
   inkscape:connector-curvature="0"
   style="fill:#005baa" />
				<path
   class="st3"
   d="m 18.3,73.9 c 0.4,-0.2 0.5,-0.5 0.6,-1 v -0.5 -0.1 c -0.6,0.1 -1.1,0.2 -1.4,0.4 -0.3,0.2 -0.5,0.4 -0.5,0.8 0,0.2 0.1,0.4 0.2,0.5 0.1,0.1 0.3,0.2 0.5,0.2 0.2,-0.1 0.4,-0.2 0.6,-0.3 z m -1.2,-1.6 c 0.4,-0.2 1,-0.3 1.7,-0.4 0,0 0,-0.1 0,-0.1 0,0 0,-0.1 0,-0.1 0,-0.4 -0.1,-0.7 -0.2,-0.8 -0.1,-0.2 -0.4,-0.3 -0.8,-0.3 -0.2,0 -0.4,0 -0.5,0.1 -0.2,0.1 -0.3,0.1 -0.3,0.2 0,0 0,0.1 0.1,0.2 0.1,0.1 0.1,0.2 0.1,0.3 0,0.1 0,0.2 -0.1,0.3 -0.1,0.1 -0.2,0.1 -0.3,0.1 -0.1,0 -0.3,0 -0.4,-0.2 -0.1,-0.1 -0.1,-0.2 -0.1,-0.4 0,-0.3 0.2,-0.5 0.5,-0.8 0.3,-0.2 0.7,-0.3 1.2,-0.3 0.7,0 1.2,0.2 1.4,0.5 0.1,0.2 0.2,0.5 0.2,0.8 v 0.2 1.3 0.2 c 0,0.2 0,0.4 0,0.5 0.1,0.2 0.2,0.2 0.3,0.2 0.1,0 0.1,0 0.2,0 0.1,0 0.1,-0.1 0.2,-0.1 0,0 0.1,0 0.1,0 0,0 0,0 0,0.1 0,0.1 -0.1,0.2 -0.2,0.3 -0.2,0.1 -0.3,0.2 -0.6,0.2 -0.3,0 -0.4,-0.1 -0.6,-0.2 -0.1,-0.1 -0.1,-0.2 -0.2,-0.4 -0.2,0.2 -0.4,0.4 -0.7,0.5 -0.3,0.1 -0.6,0.2 -0.8,0.2 -0.4,0 -0.7,-0.1 -0.9,-0.3 -0.2,-0.2 -0.3,-0.4 -0.3,-0.8 0,-0.3 0.3,-0.7 1,-1 z"
   id="path1061"
   inkscape:connector-curvature="0"
   style="clip-rule:evenodd;fill:#005baa;fill-rule:evenodd" />
				<path
   class="st2"
   d="m 21.4,70.5 c 0.2,-0.2 0.5,-0.4 1,-0.4 0.3,0 0.5,0 0.7,0.1 0.1,0 0.2,0.1 0.4,0.2 l 0.3,-0.3 H 24 v 1.5 h -0.3 c -0.1,-0.3 -0.2,-0.6 -0.3,-0.7 -0.2,-0.3 -0.6,-0.4 -1,-0.4 -0.2,0 -0.4,0.1 -0.6,0.2 -0.1,0.1 -0.2,0.3 -0.2,0.4 0,0.2 0.1,0.4 0.3,0.5 0.1,0.1 0.3,0.1 0.5,0.2 l 0.7,0.1 c 0.4,0.1 0.7,0.2 0.9,0.4 0.2,0.2 0.3,0.5 0.3,0.9 0,0.4 -0.1,0.7 -0.4,1 -0.3,0.2 -0.6,0.3 -1,0.3 -0.3,0 -0.5,0 -0.7,-0.1 -0.2,-0.1 -0.4,-0.2 -0.5,-0.3 l -0.3,0.4 H 21 v -1.7 h 0.3 c 0.1,0.3 0.2,0.6 0.4,0.8 0.3,0.4 0.7,0.5 1.1,0.5 0.3,0 0.5,-0.1 0.7,-0.2 0.2,-0.1 0.2,-0.3 0.2,-0.5 0,-0.2 -0.1,-0.4 -0.3,-0.5 -0.2,-0.1 -0.5,-0.2 -1.1,-0.3 -0.5,-0.1 -0.8,-0.2 -1,-0.4 C 21.1,72 21,71.8 21,71.4 21.1,71 21.2,70.7 21.4,70.5 Z"
   id="path1063"
   inkscape:connector-curvature="0"
   style="fill:#005baa" />
				<path
   class="st2"
   d="m 24.8,70.3 v 0 c 0.5,0 0.8,-0.3 1,-0.8 0.1,-0.3 0.2,-0.6 0.2,-1 h 0.4 v 1.8 h 1.3 v 0.4 h -1.3 v 2.6 c 0,0.2 0,0.3 0.1,0.4 0.1,0.2 0.2,0.3 0.5,0.3 0.3,0 0.5,-0.2 0.6,-0.5 0.1,-0.2 0.1,-0.4 0.1,-0.7 h 0.4 c 0,0.4 -0.1,0.8 -0.2,1 -0.2,0.5 -0.6,0.7 -1.2,0.7 -0.5,0 -0.8,-0.1 -0.9,-0.5 -0.1,-0.2 -0.1,-0.4 -0.1,-0.7 V 70.7 H 25 v -0.4 z"
   id="path1065"
   inkscape:connector-curvature="0"
   style="fill:#005baa" />
				<path
   class="st3"
   d="m 31.2,72 c 0,0 0.1,-0.1 0.1,-0.3 0,-0.2 0,-0.4 -0.1,-0.6 -0.1,-0.4 -0.4,-0.5 -0.8,-0.5 -0.4,0 -0.7,0.2 -0.9,0.8 -0.1,0.3 -0.1,0.5 -0.1,0.8 H 31 C 31,72 31.1,72 31.2,72 Z m -2.3,-1.2 c 0.4,-0.4 0.8,-0.7 1.4,-0.7 0.6,0 1,0.2 1.3,0.6 0.3,0.4 0.5,1 0.5,1.6 h -2.9 c 0,0.4 0.1,0.7 0.2,1 0.2,0.5 0.6,0.7 1.1,0.7 0.3,0 0.6,-0.1 0.8,-0.3 0.1,-0.1 0.3,-0.3 0.5,-0.6 l 0.3,0.2 c -0.2,0.4 -0.4,0.7 -0.7,0.9 -0.3,0.2 -0.7,0.3 -1.1,0.3 -0.6,0 -1,-0.2 -1.4,-0.5 -0.4,-0.4 -0.6,-0.9 -0.6,-1.6 0.1,-0.6 0.2,-1.1 0.6,-1.6 z"
   id="path1067"
   inkscape:connector-curvature="0"
   style="clip-rule:evenodd;fill:#005baa;fill-rule:evenodd" />
				<path
   class="st2"
   d="m 32.6,70.6 v -0.3 l 1.5,-0.1 v 1.4 c 0.1,-0.4 0.3,-0.7 0.4,-0.8 0.3,-0.4 0.6,-0.5 1,-0.5 0.2,0 0.4,0.1 0.5,0.2 0.1,0.1 0.2,0.3 0.2,0.5 0,0.2 0,0.3 -0.1,0.4 -0.1,0.1 -0.2,0.2 -0.4,0.2 -0.1,0 -0.2,0 -0.3,-0.1 -0.1,-0.1 -0.1,-0.2 -0.1,-0.3 0,-0.1 0,-0.2 0,-0.2 0,0 0.1,-0.1 0.1,-0.2 -0.4,0.1 -0.7,0.4 -0.9,0.9 -0.2,0.5 -0.3,1.2 -0.3,1.9 0,0.3 0,0.5 0,0.6 0,0.1 0.1,0.1 0.3,0.1 H 35 v 0.3 H 32.6 V 74 c 0,0 0.1,0 0.1,0 0,0 0.1,0 0.1,0 H 33 c 0.1,0 0.3,0 0.3,-0.1 0,0 0.1,-0.2 0.1,-0.3 v -2.1 -0.3 c 0,-0.2 0,-0.3 -0.1,-0.4 0,-0.1 -0.1,-0.1 -0.3,-0.1 h -0.4 z"
   id="path1069"
   inkscape:connector-curvature="0"
   style="fill:#005baa" />
				<path
   class="st2"
   d="M 36.6,74 H 37 c 0.1,0 0.2,0 0.3,-0.1 0.1,0 0.1,-0.1 0.1,-0.3 V 71 c 0,-0.2 0,-0.4 -0.1,-0.4 -0.1,-0.1 -0.3,-0.1 -0.7,-0.1 v -0.3 l 1.6,-0.1 V 71 c 0.2,-0.2 0.3,-0.4 0.5,-0.5 0.3,-0.2 0.6,-0.3 0.9,-0.3 0.5,0 0.8,0.1 1,0.4 0.2,0.3 0.3,0.7 0.3,1.2 v 1.9 c 0,0.1 0,0.2 0.1,0.2 0,0 0.1,0.1 0.3,0.1 h 0.4 v 0.3 H 39.5 V 74 c 0.3,0 0.5,0 0.6,0 0.1,0 0.1,-0.1 0.1,-0.3 v -1.9 c 0,-0.3 -0.1,-0.6 -0.2,-0.8 -0.1,-0.2 -0.3,-0.3 -0.6,-0.3 -0.2,0 -0.4,0.1 -0.6,0.2 -0.3,0.2 -0.5,0.7 -0.5,1.3 v 1.5 c 0,0.1 0,0.2 0.1,0.3 0,0 0.1,0.1 0.3,0.1 h 0.4 v 0.3 H 36.9 V 74 Z"
   id="path1071"
   inkscape:connector-curvature="0"
   style="fill:#005baa" />
				<path
   class="st3"
   d="m 46.8,71.3 c -0.2,0 -0.3,0 -0.4,0 v 2.2 c 0,0.2 0,0.4 0.1,0.4 0.1,0 0.3,0.1 0.7,0.1 0.7,0 1.2,-0.1 1.5,-0.3 0.3,-0.2 0.4,-0.6 0.4,-1.1 0,-0.6 -0.2,-0.9 -0.6,-1.1 -0.3,-0.1 -0.7,-0.2 -1.3,-0.2 -0.2,0 -0.3,0 -0.4,0 z M 44.5,74 c 0.5,0 0.8,-0.1 0.9,-0.1 0.1,0 0.1,-0.2 0.1,-0.5 v -4.7 -0.1 c 0,-0.1 -0.1,-0.2 -0.1,-0.2 -0.1,0 -0.2,0 -0.3,0 H 44.6 V 68 h 3.3 c 0.7,0 1.2,0.2 1.5,0.5 0.3,0.3 0.5,0.7 0.5,1.1 0,0.5 -0.2,0.9 -0.7,1.2 -0.2,0.1 -0.5,0.2 -0.9,0.3 0.4,0.1 0.8,0.2 1.1,0.3 0.5,0.3 0.8,0.7 0.8,1.3 0,0.7 -0.4,1.2 -1.1,1.5 -0.4,0.2 -1,0.2 -1.7,0.2 H 44.6 V 74 Z m 3.7,-3.3 c 0.4,-0.2 0.5,-0.5 0.5,-1 0,-0.6 -0.2,-0.9 -0.5,-1.1 -0.2,-0.1 -0.6,-0.2 -1.1,-0.2 -0.3,0 -0.5,0 -0.6,0.1 -0.1,0 -0.1,0.2 -0.1,0.4 v 2 c 0.9,0 1.5,0 1.8,-0.2 z"
   id="path1073"
   inkscape:connector-curvature="0"
   style="clip-rule:evenodd;fill:#005baa;fill-rule:evenodd" />
				<path
   class="st3"
   d="m 53.1,73.9 c 0.4,-0.2 0.5,-0.5 0.6,-1 v -0.5 -0.1 c -0.6,0.1 -1.1,0.2 -1.4,0.4 -0.3,0.2 -0.5,0.4 -0.5,0.8 0,0.2 0.1,0.4 0.2,0.5 0.1,0.1 0.3,0.2 0.5,0.2 0.2,-0.1 0.4,-0.2 0.6,-0.3 z M 52,72.3 c 0.4,-0.2 1,-0.3 1.7,-0.4 0,0 0,-0.1 0,-0.1 0,0 0,-0.1 0,-0.1 0,-0.4 -0.1,-0.7 -0.2,-0.8 -0.1,-0.2 -0.4,-0.3 -0.8,-0.3 -0.2,0 -0.4,0 -0.5,0.1 -0.2,0.1 -0.3,0.1 -0.3,0.2 0,0 0,0.1 0.1,0.2 0.1,0.1 0.1,0.2 0.1,0.3 0,0.1 0,0.2 -0.1,0.3 -0.1,0.1 -0.2,0.1 -0.3,0.1 -0.2,0 -0.3,0 -0.4,-0.2 -0.1,-0.1 -0.1,-0.2 -0.1,-0.4 0,-0.3 0.1,-0.5 0.5,-0.8 0.3,-0.2 0.7,-0.3 1.2,-0.3 0.7,0 1.2,0.2 1.4,0.5 0.1,0.2 0.2,0.5 0.2,0.8 v 0.2 1.3 0.2 c 0,0.2 0,0.4 0,0.5 0.1,0.2 0.1,0.2 0.3,0.2 0.1,0 0.1,0 0.2,0 0.1,0 0.1,-0.1 0.2,-0.1 0,0 0.1,0 0.1,0 0,0 0,0 0,0.1 0,0.1 -0.1,0.2 -0.2,0.3 -0.2,0.1 -0.3,0.2 -0.5,0.2 -0.3,0 -0.5,-0.1 -0.6,-0.2 -0.1,-0.1 -0.1,-0.2 -0.2,-0.4 -0.2,0.2 -0.4,0.4 -0.7,0.5 -0.3,0.1 -0.6,0.2 -0.8,0.2 -0.4,0 -0.7,-0.1 -0.9,-0.3 -0.2,-0.2 -0.3,-0.4 -0.3,-0.8 -0.2,-0.3 0.2,-0.7 0.9,-1 z"
   id="path1075"
   inkscape:connector-curvature="0"
   style="clip-rule:evenodd;fill:#005baa;fill-rule:evenodd" />
				<path
   class="st2"
   d="m 55.7,74 h 0.4 c 0.1,0 0.2,0 0.3,-0.1 0,0 0.1,-0.1 0.1,-0.3 V 71 c 0,-0.2 0,-0.4 -0.1,-0.4 -0.1,-0.1 -0.3,-0.1 -0.7,-0.1 v -0.3 l 1.6,-0.1 V 71 c 0.2,-0.2 0.3,-0.4 0.5,-0.5 0.3,-0.2 0.6,-0.3 0.9,-0.3 0.5,0 0.8,0.1 1,0.4 0.2,0.3 0.3,0.7 0.3,1.2 v 1.9 c 0,0.1 0,0.2 0.1,0.2 0,0 0.1,0.1 0.3,0.1 h 0.4 v 0.3 H 58.6 V 74 c 0.3,0 0.5,0 0.6,0 0.1,0 0.1,-0.1 0.1,-0.3 v -1.9 c 0,-0.3 -0.1,-0.6 -0.2,-0.8 -0.1,-0.2 -0.3,-0.3 -0.6,-0.3 -0.2,0 -0.4,0.1 -0.6,0.2 -0.4,0.2 -0.5,0.7 -0.5,1.3 v 1.5 c 0,0.1 0,0.2 0.1,0.3 0,0 0.1,0.1 0.3,0.1 h 0.4 v 0.3 H 56 V 74 Z"
   id="path1077"
   inkscape:connector-curvature="0"
   style="fill:#005baa" />
				<path
   class="st2"
   d="M 60.9,68.3 V 68 l 1.6,-0.1 v 4.4 l 1.3,-1.2 c 0,-0.1 0.1,-0.1 0.1,-0.1 0,0 0,-0.1 0,-0.1 0,0 0,-0.1 -0.1,-0.1 0,0 -0.1,-0.1 -0.2,-0.1 h -0.5 v -0.3 h 2.3 v 0.3 c -0.3,0 -0.5,0.1 -0.7,0.2 -0.2,0.1 -0.4,0.2 -0.6,0.4 l -0.6,0.5 1.2,1.6 c 0.1,0.2 0.3,0.4 0.4,0.5 0.4,0.1 0.6,0.1 0.9,0.1 v 0.3 H 63.7 V 74 H 64 c 0.1,0 0.2,0 0.2,0 0,0 0,-0.1 0,-0.1 0,0 0,-0.1 0,-0.1 0,0 0,-0.1 -0.1,-0.2 l -1,-1.4 -0.6,0.5 v 0.9 c 0,0.1 0,0.2 0.1,0.3 0,0 0.1,0.1 0.2,0.1 h 0.4 v 0.3 H 61 V 74 h 0.4 c 0.2,0 0.2,0 0.3,-0.1 0,0 0.1,-0.1 0.1,-0.3 v -4.9 c 0,-0.2 0,-0.3 -0.1,-0.3 -0.1,0 -0.2,-0.1 -0.4,-0.1 z"
   id="path1079"
   inkscape:connector-curvature="0"
   style="fill:#005baa" />
				<path
   class="st2"
   d="M 68.8,74.4 V 74 c 0.3,0 0.5,0 0.6,0 0.1,0 0.1,0 0.1,0 0.1,0 0.2,-0.1 0.2,-0.1 0,-0.1 0.1,-0.2 0.1,-0.3 v -4.7 c 0,-0.2 -0.1,-0.4 -0.2,-0.4 -0.1,0 -0.4,-0.1 -0.8,-0.1 V 68 h 2.9 v 0.4 c -0.5,0 -0.7,0 -0.8,0.1 -0.1,0 -0.1,0.2 -0.1,0.4 v 4.6 c 0,0.2 0.1,0.4 0.2,0.5 0.1,0.1 0.3,0.1 0.7,0.1 0.6,0 1,-0.1 1.3,-0.3 0.5,-0.3 0.8,-0.9 0.9,-1.8 h 0.4 L 74,74.4 Z"
   id="path1081"
   inkscape:connector-curvature="0"
   style="fill:#005baa" />
				<path
   class="st2"
   d="m 74.5,70.3 v 0 c 0.5,0 0.8,-0.3 1,-0.8 0.1,-0.3 0.2,-0.6 0.2,-1 H 76 v 1.8 h 1.3 v 0.4 H 76 v 2.6 c 0,0.2 0,0.3 0.1,0.4 0.1,0.2 0.2,0.3 0.5,0.3 0.3,0 0.5,-0.2 0.6,-0.5 0.1,-0.2 0.1,-0.4 0.1,-0.7 h 0.3 c 0,0.4 -0.1,0.8 -0.2,1 -0.2,0.5 -0.6,0.7 -1.2,0.7 -0.4,0 -0.7,-0.1 -0.9,-0.5 -0.1,-0.2 -0.1,-0.4 -0.1,-0.7 v -2.6 h -0.8 v -0.4 z"
   id="path1083"
   inkscape:connector-curvature="0"
   style="fill:#005baa" />
				<path
   class="st3"
   d="m 79.3,73.6 c 0.2,0.3 0.4,0.5 0.8,0.5 0.5,0 0.8,-0.2 0.9,-0.7 0.1,-0.3 0.1,-0.6 0.1,-1 0,-0.4 -0.1,-0.7 -0.2,-1 -0.2,-0.4 -0.5,-0.6 -0.9,-0.6 -0.4,0 -0.7,0.2 -0.8,0.7 -0.1,0.3 -0.2,0.6 -0.2,1.1 0.1,0.3 0.1,0.7 0.3,1 z m -0.7,-2.7 c 0.3,-0.4 0.8,-0.7 1.3,-0.7 0.3,0 0.5,0.1 0.7,0.2 0.2,0.1 0.4,0.3 0.5,0.5 v -2.2 c 0,-0.2 -0.1,-0.3 -0.2,-0.4 -0.1,0 -0.3,0 -0.7,0 V 68 l 1.7,-0.1 v 5.8 c 0,0.1 0,0.2 0.1,0.2 0,0.1 0.1,0.1 0.3,0.1 h 0.4 v 0.3 l -1.5,0.1 v -0.8 c -0.1,0.2 -0.2,0.4 -0.4,0.5 -0.3,0.2 -0.6,0.3 -0.9,0.3 -0.5,0 -0.9,-0.2 -1.2,-0.5 -0.3,-0.3 -0.5,-0.9 -0.5,-1.7 -0.1,-0.4 0.1,-0.9 0.4,-1.3 z"
   id="path1085"
   inkscape:connector-curvature="0"
   style="clip-rule:evenodd;fill:#005baa;fill-rule:evenodd" />
				<path
   class="st2"
   d="m 84.4,73.6 c 0.1,0.1 0.2,0.2 0.2,0.4 0,0.2 -0.1,0.3 -0.2,0.4 -0.1,0.1 -0.2,0.1 -0.4,0.1 -0.2,0 -0.3,0 -0.4,-0.1 -0.1,-0.1 -0.2,-0.2 -0.2,-0.4 0,-0.1 0.1,-0.3 0.2,-0.4 0.1,-0.1 0.2,-0.2 0.4,-0.2 0.2,0 0.3,0.1 0.4,0.2 z"
   id="path1087"
   inkscape:connector-curvature="0"
   style="fill:#005baa" />
			</g>
			<g
   id="g1109">
				<g
   id="g1097">
					<path
   class="st2"
   d="m 34.8,43.5 c 0,0 -21.9,13.2 -24.9,5 0,0 -3.8,-9.3 13,-20.7 0,0 -8.6,0.4 -4.6,-4.4 0,0 5.6,-6.3 15.7,-10 l -1.2,1.5 c 0,0 -8.9,3.8 -7.2,8.1 1,2.5 5.1,-0.5 5.1,-0.5 l 1.7,0.6 c 0,0 -18.5,11.8 -13.9,20.8 0,0 4.9,6.1 14.9,-1.1 z"
   id="path1091"
   inkscape:connector-curvature="0"
   style="fill:#005baa" />
					<path
   class="st4"
   d="m 36.1,14.1 c -0.2,0.1 0,1.2 0,1.2 0,0 6.6,-3.3 8.6,-1.5 0,0 1.9,2.6 -8.7,8.5 v 2.4 c 0,0 16.3,-9.8 17.5,0.9 0,0 1.2,9.4 -10.7,23.6 0,0 20.8,-15 20.3,-27.2 0,0 -1,-9.2 -16.4,-4.1 0,0 5.8,-4.7 1.3,-7.5 0.1,0 -4.8,-2.6 -11.9,3.7 z"
   id="path1093"
   inkscape:connector-curvature="0"
   style="fill:#faa61a" />
					<path
   class="st5"
   d="M 37.3,6.3 36,50.6 c 18.5,-4 42.3,-8.8 48.1,-8.1 0,0 1.8,1.1 -1.6,1.8 0,0 -48.7,12 -67.4,20.6 l -2.6,-9 c 0,0 9.8,-2.3 22.2,-5.1 0.1,-4.2 0.7,-36.5 -1.1,-39.4 z"
   id="path1095"
   inkscape:connector-curvature="0"
   style="fill:#00a651" />
				</g>
				<g
   id="g1107">
					<g
   id="g1101">
						<path
   d="m 83.1,51.7 -0.3,0.1 -1,-1.4 h -0.4 v 1.4 h -0.3 v -3.2 h 0.8 c 0.3,0 0.6,0.1 0.7,0.2 0.2,0.1 0.3,0.4 0.3,0.6 0,0.1 0,0.2 -0.1,0.3 0,0.1 -0.1,0.2 -0.2,0.3 -0.1,0.1 -0.1,0.1 -0.2,0.2 -0.1,0 -0.2,0.1 -0.3,0.1 z M 82.4,49 C 82.3,48.9 82.1,48.8 81.9,48.8 H 81.4 V 50 h 0.4 c 0.2,0 0.4,-0.1 0.6,-0.2 0.1,-0.1 0.2,-0.3 0.2,-0.5 0,0 -0.1,-0.2 -0.2,-0.3 z"
   id="path1099"
   inkscape:connector-curvature="0" />
					</g>
					<g
   id="g1105">
						<path
   d="m 81.9,52.9 c -1.5,0 -2.7,-1.2 -2.7,-2.7 0,-1.5 1.2,-2.7 2.7,-2.7 1.5,0 2.7,1.2 2.7,2.7 0,1.5 -1.2,2.7 -2.7,2.7 z m 0,-5 c -1.3,0 -2.4,1.1 -2.4,2.4 0,1.3 1.1,2.4 2.4,2.4 1.3,0 2.4,-1.1 2.4,-2.4 0,-1.4 -1.1,-2.4 -2.4,-2.4 z"
   id="path1103"
   inkscape:connector-curvature="0" />
					</g>
				</g>
			</g>
		</g>
	</g>
</g>
</svg>