<svg version="1.2" xmlns="http://www.w3.org/2000/svg" viewBox="0 0 504 305" width="1050" height="635">
	<title>rocket-ai</title>
	<defs>
		<clipPath clipPathUnits="userSpaceOnUse" id="cp1">
			<path d="m272.64 108.41l-50.83-26.65 187.8-78.1-56.4 173.55-40.29-51.45-13.01 27.28-4.96-39.67 70.66-70.66zm61.97 149.99c0 0-14.87-16.11-18.59-20.45 18.39-11.36 13.22-42.56-11.78-43.39v74.38h-74.99c-61.98-11.16-56.1-93.59 0.62-102.27 14.56 0 74.37 0 74.37 0 47.11 2.69 69.42 58.06 30.37 91.73zm-57.62-63.84c0 0-34.71 0-44 0-31.61 5.58-23.25 48.04 2.47 46.49 3.1 0 41.53 0 41.53 0zm211.33 46.48c-2.17 12.71-11.46 27.58-31.61 27.89h-88.63v-102.26h78.72c-4.19-25.41-33.01-26.19-43.39-9.92 0 0-16.89-15.03-20.45-17.97 18.13-31.46 87.08-29.75 91.11 27.89 0.77 0 13.63 0 13.63 0v27.89h-92.35v47.1c0 0 51.14 0 60.12 0 7.29-0.62 6.98-10.85 0-10.53-3.09 0-34.71 0-34.71 0l11.78-27.28c0 0 14.88 0 27.27 0 17.36 3.1 29.75 16.74 28.51 37.19zm-301.22 21.08c-3.41 2.78-20.45 17.35-20.45 17.35-39.36-42.46-19.53-98.86-8.06-112.8h35.95c-39.67 35.63-19.53 83.67-7.44 95.45zm-106.6 40.86c-12.46 0-22.53-10.07-22.53-22.53 0-12.46 10.07-22.53 22.53-22.53 12.46 0 22.54 10.07 22.54 22.53 0 12.46-10.08 22.53-22.54 22.53zm48.96-136.31c0 0 0 98.85 0 102.26h-23.33c-4.4-9.77-14.22-16.57-25.63-16.57-11.41 0-21.22 6.8-25.62 16.57h-0.42c-61.97-11.15-56.09-93.59 0.62-102.26 14.57 0 74.38 0 74.38 0zm-27.27 27.89c0 0-34.71 0-44.01 0-31.61 5.58-23.24 48.03 2.48 46.48 3.1 0 41.53 0 41.53 0zm-9.29-40.9h-15.5l-11.16-11.16v11.16h-9.92v-35.64c0 0 22.47 0 24.18 0 14.87 4.18 10.38 22.93 1.25 24.48zm-12.34-24.02c0-1.28-1.06-2.34-2.34-2.34h-11.86v4.95h11.86c1.28 0 2.34-1.05 2.34-2.34zm29.59 23.93c-9.98 0-18.06-8.07-18.06-18.06 0-9.98 8.08-18.06 18.06-18.06 9.99 0 18.06 8.08 18.06 18.06 0 9.99-8.07 18.06-18.06 18.06zm7.94-18.06c0-4.39-3.55-7.93-7.94-7.93-4.39 0-7.93 3.54-7.93 7.93 0 4.39 3.54 7.94 7.93 7.94 4.39 0 7.94-3.55 7.94-7.94zm88.65-4.9h22.1v9.5h-22.1c1.36 1.75 3.48 2.89 5.87 2.89h16.23v10.47h-13.74c-10.8 0-19.63-8.15-19.63-18.11 0-9.96 8.83-18.11 19.63-18.11h13.74v10.46h-16.23c-2.39 0-4.51 1.14-5.87 2.9zm-43.23 12.39v10.47h-13.83c-10.8 0-19.64-8.15-19.64-18.11 0-9.96 8.84-18.11 19.64-18.11h13.83v10.46h-15.42c-4.09 0-7.44 3.35-7.44 7.44v0.42c0 4.09 3.35 7.43 7.44 7.43zm103.02-15.7h-12.81v25.62h-9.37v-25.62h-12.81v-9.36h34.99zm-65.78 25.61h-13.93l-9.95-10.03v10.03h-9.37v-34.98h9.37v9.76l9.68-9.76h13.94l-17.22 17.36z"/>
		</clipPath>
	</defs>
	<style>
		.s0 { fill: #fefefe } 
		.s1 { fill: #8b3393 } 
	</style>
	<g id="_Artboards_">
	</g>
	<g id="Layer 1">
		<g id="&lt;Group&gt;">
			<g id="&lt;Group&gt;">
				<g id="&lt;Group&gt;">
					<g id="&lt;Group&gt;">
					</g>
				</g>
				<g id="&lt;Group&gt;">
					<g id="&lt;Group&gt;">
					</g>
				</g>
				<g id="&lt;Group&gt;">
				</g>
				<g clip-path="url(#cp1)">
					<path id="&lt;Path&gt;" fill-rule="evenodd" class="s0" d="m272.6 108.4l-50.8-26.6 187.8-78.1-56.4 173.5-40.3-51.4-13 27.2-5-39.6 70.7-70.7zm62 150c0 0-14.9-16.1-18.6-20.5 18.4-11.3 13.2-42.5-11.8-43.3v74.3h-75c-62-11.1-56.1-93.6 0.6-102.2 14.6 0 74.4 0 74.4 0 47.1 2.7 69.4 58 30.4 91.7zm-57.6-63.8c0 0-34.7 0-44 0-31.7 5.5-23.3 48 2.4 46.4 3.1 0 41.6 0 41.6 0zm211.3 46.5c-2.2 12.7-11.5 27.6-31.6 27.9h-88.6v-102.2h78.7c-4.2-25.5-33-26.2-43.4-10 0 0-16.9-15-20.5-17.9 18.2-31.5 87.1-29.8 91.1 27.9 0.8 0 13.7 0 13.7 0v27.8h-92.4v47.2c0 0 51.2 0 60.1 0 7.3-0.7 7-10.9 0-10.6-3.1 0-34.7 0-34.7 0l11.8-27.3c0 0 14.9 0 27.3 0 17.3 3.1 29.7 16.8 28.5 37.2zm-301.2 21.1c-3.4 2.8-20.5 17.4-20.5 17.4-39.3-42.5-19.5-98.9-8-112.8h35.9c-39.7 35.6-19.5 83.6-7.4 95.4zm-106.6 40.9c-12.5 0-22.6-10.1-22.6-22.6 0-12.4 10.1-22.5 22.6-22.5 12.4 0 22.5 10.1 22.5 22.5 0 12.5-10.1 22.6-22.5 22.6zm48.9-136.3c0 0 0 98.8 0 102.2h-23.3c-4.4-9.7-14.2-16.6-25.6-16.6-11.4 0-21.3 6.9-25.7 16.6h-0.4c-61.9-11.1-56.1-93.6 0.7-102.2 14.5 0 74.3 0 74.3 0zm-27.2 27.8c0 0-34.7 0-44 0-31.7 5.6-23.3 48.1 2.4 46.5 3.1 0 41.6 0 41.6 0zm-9.3-40.9h-15.5l-11.2-11.1v11.1h-9.9v-35.6c0 0 22.5 0 24.2 0 14.8 4.2 10.3 22.9 1.2 24.5zm-12.3-24c0-1.3-1.1-2.4-2.4-2.4h-11.8v5h11.8c1.3 0 2.4-1.1 2.4-2.4zm29.6 24c-10 0-18.1-8.1-18.1-18.1 0-10 8.1-18.1 18.1-18.1 10 0 18 8.1 18 18.1 0 10-8 18.1-18 18.1zm7.9-18.1c0-4.4-3.5-7.9-7.9-7.9-4.4 0-8 3.5-8 7.9 0 4.4 3.6 7.9 8 7.9 4.4 0 7.9-3.5 7.9-7.9zm88.7-4.9h22.1v9.5h-22.1c1.3 1.7 3.4 2.9 5.8 2.9h16.3v10.5h-13.8c-10.8 0-19.6-8.2-19.6-18.2 0-9.9 8.8-18.1 19.6-18.1h13.8v10.5h-16.3c-2.4 0-4.5 1.1-5.8 2.9zm-43.3 12.4v10.5h-13.8c-10.8 0-19.6-8.2-19.6-18.2 0-9.9 8.8-18.1 19.6-18.1h13.8v10.5h-15.4c-4.1 0-7.4 3.3-7.4 7.4v0.4c0 4.1 3.3 7.5 7.4 7.5zm103-15.7h-12.8v25.6h-9.3v-25.6h-12.9v-9.4h35zm-65.7 25.6h-14l-9.9-10v10h-9.4v-35h9.4v9.8l9.7-9.8h13.9l-17.2 17.4z"/>
					<path id="&lt;Path&gt;" class="s1" d="m546-22v398.3h-595v-398.3z"/>
				</g>
			</g>
		</g>
	</g>
</svg>