<svg version="1.2" xmlns="http://www.w3.org/2000/svg" viewBox="0 0 514 251" width="514" height="251">
	<title>ucb-bank-seeklogo-ai</title>
	<defs>
		<linearGradient id="g1" x2="1" gradientUnits="userSpaceOnUse" gradientTransform="matrix(181.847,0,0,213.815,322.607,2.514)">
			<stop offset="0" stop-color="#e83038"/>
			<stop offset="1" stop-color="#6b2b2b"/>
		</linearGradient>
		<linearGradient id="g2" x2="1" gradientUnits="userSpaceOnUse" gradientTransform="matrix(52.255,58.386,-34.845,31.186,427.02,-48.786)">
			<stop offset="0" stop-color="#fefefe" stop-opacity="1"/>
			<stop offset="1" stop-color="#fefefe" stop-opacity="0"/>
		</linearGradient>
	</defs>
	<style>
		.s0 { fill: #3f4042 } 
		.s1 { fill: url(#g1) } 
		.s2 { fill: url(#g2) } 
		.s3 { fill: #8f9094 } 
	</style>
	<g id="Layer 1">
		<g id="&lt;Group&gt;">
			<g id="&lt;Group&gt;">
				<g id="&lt;Group&gt;">
					<path id="&lt;Compound Path&gt;" class="s0" d="m65 76.2v67.5c0 6.1-5 11-11 11h-8.1c-6.1 0-11-4.9-11-11v-67.5h-13.8c-6.8 0-12.2 5.5-12.2 12.2v55.3c0 20.4 16.5 34.8 37 34.8h8.1c20.4 0 37-14.4 37-34.8v-55.3c0-6.7-5.5-12.2-12.2-12.2z"/>
				</g>
			</g>
			<g id="&lt;Group&gt;">
				<g id="&lt;Group&gt;">
					<path id="&lt;Compound Path&gt;" class="s0" d="m181.3 136.7c-4.6 0-8.7 2.8-10.7 7-3.2 6.6-10 11.2-17.8 11.2h-4.3c-10.8 0-19.7-8.9-19.7-19.7v-18.3c0-10.9 8.9-19.7 19.7-19.7h4.3c7.4 0 13.8 4.1 17.2 10.1 2 3.6 5.9 5.7 10 5.7h16.3c-2-22.3-20.7-39.8-43.5-39.8h-4.3c-24.1 0-43.7 19.6-43.7 43.7v18.3c0 24.1 19.6 43.7 43.7 43.7h4.3c23.6 0 42.9-18.8 43.7-42.2z"/>
				</g>
			</g>
			<g id="&lt;Group&gt;">
				<g id="&lt;Group&gt;">
					<path id="&lt;Compound Path&gt;" fill-rule="evenodd" class="s0" d="m290.3 139.1v8.1c0 16.1-13 29.2-29.1 29.2h-43.3c-6.4 0-11.6-5.2-11.6-11.6v-78.2c0-6.2 5.1-11.2 11.3-11.2h44.3c14.4 0 26.1 11.6 26.1 26v3.9c0 7.3-3.8 13.7-9.5 17.4 6.8 2.3 11.8 8.8 11.8 16.4zm-59.5-26.6h24.1c3.8 0 6.9-2.4 6.9-6.3v-2.3c0-3.2-2.6-5.9-5.9-5.9h-25.1zm33.5 28.9c0-3.8-3.2-7-7-7h-26.5v19.1h24.7c4.8 0 8.8-3.9 8.8-8.7z"/>
				</g>
			</g>
			<g id="&lt;Group&gt;">
				<path id="&lt;Path&gt;" class="s1" d="m434.8 216.3c0 0 2.3-14.6-5.6-22.5-4.9-4.9-53.4-54.6-89.9-92-22.6-23.2-22.2-60.3 1-83 22.7-22.1 59-21.7 81.2 1l68.1 69.7c20.1 20.7 19.8 53.8-0.9 74z"/>
			</g>
			<path id="&lt;Path&gt;" class="s2" d="m420.4 173.3c0 0 1.6-10.2-3.9-15.7-3.4-3.4-37-37.8-62.4-63.8-15.7-16.1-15.3-41.9 0.7-57.6 15.8-15.4 41-15.1 56.4 0.7l47.3 48.4c14 14.3 13.7 37.3-0.6 51.3z"/>
			<g id="&lt;Group&gt;">
				<path id="&lt;Path&gt;" class="s3" d="m427.8 205.8c2.9 7.9 0.6 16.8-5.5 22.7q-0.5 0.5-1 1c-23.2 22.6-60.3 22.1-82.9-1-10.9-11.2-16.4-25.7-16.4-40.1 0-15 5.8-29.9 17.4-41.1l17.1-16.8c31.3 32.1 63.2 64.9 67.2 68.8 1.8 1.9 3.2 4.1 4.1 6.5z"/>
			</g>
		</g>
	</g>
</svg>