<svg version="1.2" xmlns="http://www.w3.org/2000/svg" viewBox="0 0 356 120" width="356" height="120">
	<title>katman 1</title>
	<style>
		.s0 { fill: #ffffff } 
		.s1 { fill: #000000 } 
		.s2 { fill: none;stroke: #000000;stroke-width: 2 } 
	</style>
	<g id="katman 1">
		<g id="-e-eFolder 1">
			<path id="&lt;Path&gt;" class="s0" d="m21.7 2.1h312.5c10.6 0 19.2 8.5 19.2 19.1v76.7c0 10.6-8.6 19.1-19.2 19.1h-312.5c-10.6 0-19.2-8.5-19.2-19.1v-76.7c0-10.6 8.6-19.1 19.2-19.1z"/>
			<path id="&lt;Path&gt;" class="s1" d="m241.4 57.2v6.7h-4.2v4.5h4.2v15c0 5.2 2.4 7.2 8.2 7.2 1 0 2-0.1 2.9-0.2v-4.4c-0.8 0-1.2 0.1-2 0.1-2.6 0-3.8-1.2-3.8-4v-13.7h5.8v-4.5h-5.8v-6.7z"/>
			<path id="&lt;Compound Path&gt;" fill-rule="evenodd" class="s1" d="m267.4 91c-7 0-12.6-6.2-12.6-13.9 0-7.6 5.6-13.8 12.6-13.8 6.9 0 12.5 6.2 12.5 13.8 0 7.7-5.6 13.9-12.5 13.9zm7.1-13.8c0-5.1-3.2-9.2-7.1-9.2-4 0-7.2 4.1-7.2 9.2 0 5 3.2 9.1 7.2 9.1 3.9 0 7.1-4.1 7.1-9.1z"/>
			<path id="&lt;Path&gt;" class="s1" d="m284 90.5h5.3v-15.8c0-3.7 2.8-6.2 6.8-6.2 0.9 0 2.5 0.1 2.9 0.3v-5.2c-0.5-0.1-1.5-0.2-2.3-0.2-3.5 0-6.5 1.9-7.2 4.5h-0.4v-4.1h-5.1z"/>
			<path id="&lt;Compound Path&gt;" fill-rule="evenodd" class="s1" d="m323.7 83.3c-1.2 4.8-5.5 7.7-11.6 7.7-7.6 0-12.3-5.2-12.3-13.8 0-8.5 4.8-13.9 12.3-13.9 7.4 0 11.9 5.1 11.9 13.4v1.9h-18.8v0.3c0.2 4.6 2.9 7.6 7.1 7.6 3.2 0 5.3-1.1 6.3-3.2zm-18.5-8.6h13.5c-0.1-4.2-2.7-6.9-6.6-6.9-3.9 0-6.6 2.7-6.9 6.9z"/>
			<path id="&lt;Path&gt;" class="s1" d="m206.9 80.6c0.4 6.6 5.9 10.8 14 10.8 8.7 0 14.1-4.4 14.1-11.4 0-5.5-3.1-8.6-10.6-10.3l-4-1c-4.8-1.1-6.7-2.6-6.7-5.2 0-3.3 3-5.5 7.5-5.5 4.2 0 7.2 2.1 7.7 5.5h5.5c-0.3-6.2-5.7-10.5-13.2-10.5-7.9 0-13.3 4.3-13.3 10.8 0 5.4 3 8.6 9.7 10.2l4.7 1.1c4.8 1.1 7 2.8 7 5.6 0 3.3-3.4 5.6-8 5.6-4.8 0-8.2-2.2-8.7-5.7z"/>
			<path id="&lt;Compound Path&gt;" fill-rule="evenodd" class="s1" d="m163.5 77.1c0 8.5-4.3 13.8-11 13.8-3.8 0-6.8-1.6-8.2-4.5h-0.4v12.9h-5.3v-35.5h5.1v4.4h0.4c1.6-3 4.7-4.8 8.3-4.8 6.8 0 11.1 5.3 11.1 13.7zm-5.4 0c0-5-3.2-9-7.2-9-3.9 0-7.1 4-7.1 9 0 5 3.2 9.1 7.1 9.1 4 0 7.2-4.1 7.2-9.1z"/>
			<path id="&lt;Compound Path&gt;" fill-rule="evenodd" class="s1" d="m193 77.1c0 8.5-4.3 13.8-11 13.8-3.8 0-6.8-1.6-8.2-4.5h-0.5v12.9h-5.2v-35.5h5v4.4h0.4c1.7-3 4.8-4.8 8.4-4.8 6.8 0 11.1 5.3 11.1 13.7zm-5.4 0c0-5-3.2-9-7.2-9-4 0-7.2 4-7.2 9 0 5 3.2 9.1 7.2 9.1 4 0 7.2-4.1 7.2-9.1z"/>
			<path id="&lt;Compound Path&gt;" fill-rule="evenodd" class="s1" d="m125.8 80.8h-13.9l-3.4 9.7h-5.8l13.2-36.6h6.1l13.2 36.6h-6zm-12.5-4.8h11l-5.3-15.5h-0.4z"/>
			<path id="&lt;Compound Path&gt;" fill-rule="evenodd" class="s1" d="m112.6 26.3c5.2 0 8.3 3.2 8.3 8.7 0 5.7-3.1 8.9-8.3 8.9h-6.4v-17.6zm-3.6 15.1h3.3c3.7 0 5.8-2.3 5.8-6.3 0-4-2.2-6.3-5.8-6.3h-3.3z"/>
			<path id="&lt;Compound Path&gt;" fill-rule="evenodd" class="s1" d="m130.2 44.2c-3.5 0-6.3-3.1-6.3-6.9 0-3.9 2.8-7 6.3-7 3.5 0 6.3 3.1 6.3 7 0 3.8-2.8 6.9-6.3 6.9zm3.6-6.9c0-2.6-1.6-4.6-3.6-4.6-2 0-3.6 2-3.6 4.6 0 2.5 1.6 4.5 3.6 4.5 2 0 3.6-2 3.6-4.5z"/>
			<path id="&lt;Path&gt;" class="s1" d="m156.8 30.6h-2.6l-2.4 10.2h-0.2l-2.8-10.2h-2.5l-2.7 10.2h-0.2l-2.4-10.2h-2.7l3.7 13.3h2.7l2.8-9.8h0.2l2.7 9.8h2.7z"/>
			<path id="&lt;Path&gt;" class="s1" d="m159.8 43.9h2.7v-7.8c0-2.1 1.2-3.4 3.1-3.4 2 0 2.9 1.1 2.9 3.3v7.9h2.7v-8.6c0-3.2-1.7-5-4.7-5-2 0-3.3 0.9-3.9 2.4h-0.2v-2.1h-2.6z"/>
			<path id="&lt;Path&gt;" class="s1" d="m177.9 25.4v18.5h-2.6v-18.5z"/>
			<path id="&lt;Compound Path&gt;" fill-rule="evenodd" class="s1" d="m187.8 44.2c-3.5 0-6.3-3.1-6.3-6.9 0-3.9 2.8-7 6.3-7 3.5 0 6.3 3.1 6.3 7 0 3.8-2.8 6.9-6.3 6.9zm3.6-6.9c0-2.6-1.6-4.6-3.6-4.6-2 0-3.6 2-3.6 4.6 0 2.5 1.6 4.5 3.6 4.5 2 0 3.6-2 3.6-4.5z"/>
			<path id="&lt;Compound Path&gt;" fill-rule="evenodd" class="s1" d="m196.8 40.2c0-2.4 1.8-3.8 5-4l3.6-0.2v-1.2c0-1.4-0.9-2.2-2.7-2.2-1.5 0-2.5 0.6-2.8 1.5h-2.6c0.3-2.3 2.5-3.8 5.5-3.8 3.3 0 5.2 1.7 5.2 4.5v9.1h-2.5v-1.9h-0.2c-0.8 1.4-2.3 2.1-4 2.1-2.6 0-4.5-1.5-4.5-3.9zm8.6-1.2v-1.1l-3.3 0.2c-1.8 0.1-2.6 0.8-2.6 1.9 0 1.2 1 1.9 2.4 1.9 2 0 3.5-1.2 3.5-2.9z"/>
			<path id="&lt;Compound Path&gt;" fill-rule="evenodd" class="s1" d="m211.4 37.3c0-4.3 2.2-6.9 5.5-6.9 1.9 0 3.4 0.8 4.1 2.3h0.2v-7.3h2.6v18.5h-2.5v-2.1h-0.2c-0.8 1.5-2.3 2.3-4.2 2.3-3.4 0-5.5-2.6-5.5-6.8zm9.9 0c0-2.5-1.6-4.6-3.6-4.6-2 0-3.6 2.1-3.6 4.6 0 2.5 1.6 4.5 3.6 4.5 2 0 3.6-2 3.6-4.5z"/>
			<path id="&lt;Compound Path&gt;" fill-rule="evenodd" class="s1" d="m240.9 44.2c-3.5 0-6.3-3.1-6.3-6.9 0-3.9 2.8-7 6.3-7 3.5 0 6.3 3.1 6.3 7 0 3.8-2.8 6.9-6.3 6.9zm3.6-6.9c0-2.6-1.6-4.6-3.6-4.6-2 0-3.6 2-3.6 4.6 0 2.5 1.6 4.5 3.6 4.5 2 0 3.6-2 3.6-4.5z"/>
			<path id="&lt;Path&gt;" class="s1" d="m250.7 43.9h2.6v-7.8c0-2.1 1.2-3.4 3.2-3.4 1.9 0 2.9 1.1 2.9 3.3v7.9h2.6v-8.6c0-3.2-1.6-5-4.6-5-2 0-3.4 0.9-4 2.4h-0.2v-2.1h-2.5z"/>
			<path id="&lt;Path&gt;" class="s1" d="m274.1 27.3v3.4h-2.1v2.2h2.1v7.5c0 2.6 1.2 3.6 4.1 3.6q0.8 0 1.4-0.1v-2.2c-0.3 0-0.6 0-1 0-1.3 0-1.9-0.6-1.9-2v-6.8h2.9v-2.2h-2.9v-3.4z"/>
			<path id="&lt;Path&gt;" class="s1" d="m283.2 43.9h2.6v-7.8c0-2 1.2-3.3 3.3-3.3 1.9 0 2.9 1 2.9 3.2v7.9h2.6v-8.6c0-3.2-1.7-5-4.6-5-2 0-3.4 0.9-4 2.4h-0.2v-7.3h-2.6z"/>
			<path id="&lt;Compound Path&gt;" fill-rule="evenodd" class="s1" d="m309.9 40.3c-0.6 2.4-2.7 3.9-5.8 3.9-3.8 0-6.1-2.6-6.1-6.9 0-4.3 2.4-7 6.1-7 3.7 0 6 2.6 6 6.8v0.9h-9.4v0.1c0 2.4 1.4 3.8 3.5 3.8 1.6 0 2.7-0.5 3.2-1.6zm-9.3-4.3h6.8c-0.1-2.1-1.4-3.4-3.3-3.4-2 0-3.3 1.3-3.5 3.4z"/>
			<path id="&lt;Path&gt;" class="s1" d="m74.1 60.4c0.1-4.9 2.7-9.6 7-12.2-2.7-3.8-7.2-6.2-11.8-6.4-5-0.5-9.8 3-12.3 3-2.6 0-6.4-2.9-10.6-2.8-5.5 0.1-10.6 3.2-13.2 8-5.7 9.9-1.5 24.4 4 32.4 2.7 3.9 5.9 8.2 10.1 8.1 4.1-0.2 5.6-2.6 10.6-2.6 4.8 0 6.3 2.6 10.5 2.5 4.4-0.1 7.2-3.9 9.8-7.9 2-2.8 3.5-5.8 4.5-9.1-5.1-2.2-8.6-7.4-8.6-13z"/>
			<path id="&lt;Path&gt;" class="s1" d="m66 36.6c2.4-2.9 3.6-6.6 3.3-10.3-3.6 0.4-7 2.1-9.4 4.9-2.4 2.7-3.6 6.3-3.4 9.9 3.7 0 7.3-1.7 9.5-4.5z"/>
			<path id="&lt;Path&gt;" class="s2" d="m21.7 2.1h312.5c10.6 0 19.2 8.5 19.2 19.1v76.7c0 10.6-8.6 19.1-19.2 19.1h-312.5c-10.6 0-19.2-8.5-19.2-19.1v-76.7c0-10.6 8.6-19.1 19.2-19.1z"/>
		</g>
	</g>
</svg>