<svg version="1.2" xmlns="http://www.w3.org/2000/svg" viewBox="0 0 398 120" width="398" height="120">
	<title>katman 1</title>
	<style>
		.s0 { fill: #ffffff } 
		.s1 { fill: #000000 } 
		.s2 { fill: none;stroke: #000000;stroke-miterlimit:10;stroke-width: .8 } 
		.s3 { fill: none;stroke: #000000;stroke-width: 2 } 
	</style>
	<g id="katman 1">
		<g id="-e-Folder 1">
			<path id="&lt;Path&gt;" class="s0" d="m13.2 2.1h368.5c7.4 0 13.3 5.9 13.3 13.2v88.5c0 7.3-5.9 13.2-13.3 13.2h-368.5c-7.3 0-13.3-5.9-13.3-13.2v-88.5c0-7.3 6-13.2 13.3-13.2z"/>
			<path id="&lt;Compound Path&gt;" fill-rule="evenodd" class="s1" d="m199.3 89.8c-6.9 0-12.5-5.6-12.5-12.6 0-6.9 5.6-12.5 12.5-12.5 7 0 12.6 5.6 12.6 12.5 0 7-5.6 12.6-12.6 12.6zm7.1-12.5c0-4.3-3.1-7.6-7.1-7.6-3.9 0-7 3.3-7 7.6 0 4.2 3.1 7.6 7 7.6 4 0 7.1-3.4 7.1-7.6zm-34.5 12.5c-7 0-12.6-5.6-12.6-12.6 0-6.9 5.6-12.5 12.6-12.5 6.9 0 12.6 5.6 12.6 12.5 0 7-5.7 12.6-12.6 12.6zm7.1-12.5c0-4.3-3.2-7.6-7.1-7.6-3.9 0-7.1 3.3-7.1 7.6 0 4.2 3.2 7.6 7.1 7.6 3.9 0 7.1-3.4 7.1-7.6zm-39.8-8.7h17.9c0.2 0.9 0.3 2 0.3 3.3 0 4-1.1 8.9-4.6 12.4-3.4 3.6-7.8 5.5-13.6 5.5-10.7 0-19.7-8.8-19.7-19.5 0-10.7 9-19.5 19.7-19.5 6 0 10.2 2.4 13.4 5.4l-3.8 3.8c-2.3-2.2-5.3-3.8-9.6-3.8-7.8 0-13.9 6.3-13.9 14.1 0 7.9 6.1 14.2 13.9 14.2 5.1 0 8-2.1 9.9-3.9 1.5-1.5 2.5-3.7 2.9-6.7h-12.8zm134.2 5.5l-16.8 7c1.3 2.5 3.3 3.8 6.1 3.8 2.8 0 4.7-1.4 6.2-3.5l4.2 2.9c-1.3 2-4.7 5.5-10.4 5.5-7.1 0-12.5-5.5-12.5-12.5 0-7.5 5.4-12.6 11.9-12.6 6.5 0 9.7 5.2 10.7 8zm-6.4-1.9c-0.7-1.5-2.5-2.6-4.7-2.6-2.8 0-6.7 2.4-6.6 7.3zm-19.3-20.1v36.9h-5.5v-36.9zm-14.5 15.4v-2.1h5.2v22.5c0 9.3-5.5 13.1-11.9 13.1-6.1 0-9.8-4.1-11.2-7.4l4.8-2c0.9 2 3 4.5 6.4 4.5 4.1 0 6.7-2.6 6.7-7.4v-1.8h-0.2c-1.3 1.5-3.6 2.8-6.6 2.8-6.3 0-12-5.4-12-12.4 0-7.1 5.7-12.6 12-12.6 3 0 5.3 1.3 6.6 2.8zm0.3 9.7c0-4.2-3-7.6-6.8-7.6-3.8 0-6.8 3.4-6.8 7.6 0 4.2 3 7.6 6.8 7.6 3.8 0 6.8-3.4 6.8-7.6zm77.3-13.6c0 7-6 11.4-12.1 11.4h-7.6v14h-5.5v-36.9h13.1c6.1 0 12.1 4.4 12.1 11.5zm-5.5 0c0-2.9-2.3-6.3-6.4-6.3h-7.8v12.6h7.8c4.1 0 6.4-3.5 6.4-6.3zm38.8 11.2v14.1h-5.3v-2.8h-0.2c-1.3 1.9-3.4 3.6-7 3.6-4.9 0-9.2-3.2-9.2-8.1 0-5.4 5.4-8.3 10.6-8.3 2.6 0 4.8 0.8 5.8 1.4v-0.4c-0.1-3-3-4.7-5.8-4.7-2.1 0-4 0.6-5.1 2.7l-4.8-2.1c1.7-3.8 5.8-5.6 9.8-5.6 6.3 0 11.2 3.7 11.2 10.2zm-5.3 4.2c-1.5-0.7-2.7-1.3-5.1-1.3-2.7 0-5.8 1.1-5.8 4 0 2.2 2.5 3.1 4.3 3.1 3.2 0 6.1-2.4 6.6-5.8zm30.7-13.6l-15.1 34.8h-5.7l5.6-12.5-9.9-22.3h6l6.5 16h0.2l6.3-16zm-50.2-13.3v36.9h-5.5v-36.9z"/>
			<path id="&lt;Path&gt;" class="s1" d="m138.3 30.8q0 3.7-2.2 5.9-2.5 2.6-6.5 2.6-3.9 0-6.5-2.7-2.7-2.6-2.7-6.5 0-4 2.7-6.6 2.6-2.7 6.5-2.7 1.9 0 3.6 0.8 1.7 0.7 2.8 1.9l-1.6 1.6q-1.7-2.1-4.8-2.1-2.8 0-4.9 2-2 1.9-2 5.1 0 3.1 2 5.1 2.1 1.9 4.9 1.9 2.9 0 4.9-1.9 1.3-1.3 1.5-3.6h-6.4v-2.2h8.5q0.2 0.7 0.2 1.4z"/>
			<path id="&lt;Path&gt;" class="s1" d="m151.9 23.4h-8.1v5.6h7.3v2.1h-7.3v5.6h8.1v2.2h-10.4v-17.7h10.4z"/>
			<path id="&lt;Path&gt;" class="s1" d="m161.4 38.9h-2.2v-15.5h-5v-2.2h12.2v2.2h-5z"/>
			<path id="&lt;Path&gt;" class="s1" d="m177.4 21.2v17.7h-2.2v-17.7z"/>
			<path id="&lt;Path&gt;" class="s1" d="m187.5 38.9h-2.2v-15.5h-5v-2.2h12.2v2.2h-5z"/>
			<path id="&lt;Compound Path&gt;" fill-rule="evenodd" class="s1" d="m215.5 36.6q-2.6 2.7-6.5 2.7-3.9 0-6.5-2.7-2.6-2.7-2.6-6.5 0-3.9 2.6-6.6 2.6-2.7 6.5-2.7 3.9 0 6.5 2.7 2.6 2.7 2.6 6.6 0 3.8-2.6 6.5zm-11.3-1.5q2 2 4.8 2 2.8 0 4.8-2 2-1.9 2-5 0-3.1-2-5.1-2-2-4.8-2-2.8 0-4.8 2-2 2-2 5.1 0 3.1 2 5z"/>
			<path id="&lt;Path&gt;" class="s1" d="m221.3 38.9v-17.7h2.7l8.6 13.8h0.1l-0.1-3.4v-10.4h2.3v17.7h-2.4l-9-14.4h-0.1l0.1 3.4v11z"/>
			<path id="&lt;Path&gt;" class="s2" d="m138.3 30.8q0 3.7-2.2 5.9-2.5 2.6-6.5 2.6-3.9 0-6.5-2.7-2.7-2.6-2.7-6.5 0-4 2.7-6.6 2.6-2.7 6.5-2.7 1.9 0 3.6 0.8 1.7 0.7 2.8 1.9l-1.6 1.6q-1.7-2.1-4.8-2.1-2.8 0-4.9 2-2 1.9-2 5.1 0 3.1 2 5.1 2.1 1.9 4.9 1.9 2.9 0 4.9-1.9 1.3-1.3 1.5-3.6h-6.4v-2.2h8.5q0.2 0.7 0.2 1.4z"/>
			<path id="&lt;Path&gt;" class="s2" d="m151.9 23.4h-8.1v5.6h7.3v2.1h-7.3v5.6h8.1v2.2h-10.4v-17.7h10.4z"/>
			<path id="&lt;Path&gt;" class="s2" d="m161.4 38.9h-2.2v-15.5h-5v-2.2h12.2v2.2h-5z"/>
			<path id="&lt;Path&gt;" class="s2" d="m177.4 21.2v17.7h-2.2v-17.7z"/>
			<path id="&lt;Path&gt;" class="s2" d="m187.5 38.9h-2.2v-15.5h-5v-2.2h12.2v2.2h-5z"/>
			<path id="&lt;Compound Path&gt;" fill-rule="evenodd" class="s2" d="m215.5 36.6q-2.6 2.7-6.5 2.7-3.9 0-6.5-2.7-2.6-2.7-2.6-6.5 0-3.9 2.6-6.6 2.6-2.7 6.5-2.7 3.9 0 6.5 2.7 2.6 2.7 2.6 6.6 0 3.8-2.6 6.5zm-11.3-1.5q2 2 4.8 2 2.8 0 4.8-2 2-1.9 2-5 0-3.1-2-5.1-2-2-4.8-2-2.8 0-4.8 2-2 2-2 5.1 0 3.1 2 5z"/>
			<path id="&lt;Path&gt;" class="s2" d="m221.3 38.9v-17.7h2.7l8.6 13.8h0.1l-0.1-3.4v-10.4h2.3v17.7h-2.4l-9-14.4h-0.1l0.1 3.4v11z"/>
			<path id="&lt;Compound Path&gt;" class="s1" d="m74.7 42.5l-34-19.7c-1.3-0.7-2.8-1.2-4.4-1.2-3.3 0-6.2 2-7.6 4.8l0.3 0.3 30.8 30.8zm-46.9-12.8q0 0.1 0 0.3v58.9q0 0.2 0 0.4l29.9-29.8zm0.8 62.9c1.4 2.8 4.3 4.8 7.6 4.8 1.6 0 3.1-0.4 4.3-1.2h0.1l34-19.7-14.9-14.9-30.8 30.7zm48.6-17.5l13.9-8c2.6-1.5 4.5-4.3 4.5-7.5 0-3.2-1.8-6-4.5-7.4v-0.1l-13.9-8-15.5 15.4z"/>
			<path id="&lt;Path&gt;" class="s3" d="m13.2 2.1h368.5c7.4 0 13.3 5.9 13.3 13.2v88.5c0 7.3-5.9 13.2-13.3 13.2h-368.5c-7.3 0-13.3-5.9-13.3-13.2v-88.5c0-7.3 6-13.2 13.3-13.2z"/>
		</g>
	</g>
</svg>